<svg width="45" height="45" viewBox="0 0 45 45" fill="none" xmlns="http://www.w3.org/2000/svg">
<path d="M30 7.50012H33.75C34.7446 7.50012 35.6984 7.89521 36.4016 8.59847C37.1049 9.30173 37.5 10.2556 37.5 11.2501V37.5001C37.5 38.4947 37.1049 39.4485 36.4016 40.1518C35.6984 40.855 34.7446 41.2501 33.75 41.2501H11.25C10.2554 41.2501 9.30161 40.855 8.59835 40.1518C7.89509 39.4485 7.5 38.4947 7.5 37.5001V11.2501C7.5 10.2556 7.89509 9.30173 8.59835 8.59847C9.30161 7.89521 10.2554 7.50012 11.25 7.50012H15" stroke="#040254" stroke-width="2" stroke-linecap="round" stroke-linejoin="round"/>
<path d="M28.125 3.75H16.875C15.8395 3.75 15 4.58947 15 5.625V9.375C15 10.4105 15.8395 11.25 16.875 11.25H28.125C29.1605 11.25 30 10.4105 30 9.375V5.625C30 4.58947 29.1605 3.75 28.125 3.75Z" stroke="url(#paint0_linear)" stroke-width="2" stroke-linecap="round" stroke-linejoin="round"/>
<defs>
<linearGradient id="paint0_linear" x1="13" y1="1" x2="22.5" y2="11.25" gradientUnits="userSpaceOnUse">
<stop stop-color="#8E2DE2"/>
<stop offset="1" stop-color="#323AFF"/>
</linearGradient>
</defs>
</svg>
