<svg width="435" height="254" viewBox="0 0 435 254" fill="none" xmlns="http://www.w3.org/2000/svg">
<g clip-path="url(#clip0)">
<rect x="-215" y="-2231" width="1440" height="4298" fill="white"/>
<rect opacity="0.7" y="1" width="435" height="252.967" rx="15" fill="#F4F5FF"/>
<g filter="url(#filter0_d)">
<rect x="16.2378" y="185.597" width="400.815" height="47.8585" rx="12" fill="white"/>
</g>
<line opacity="0.3" x1="328.673" y1="194.998" x2="328.673" y2="224.055" stroke="#A2A2C0"/>
<line opacity="0.3" x1="208.172" y1="194.998" x2="208.172" y2="224.055" stroke="#A2A2C0"/>
<rect x="135.03" y="195.853" width="27.3477" height="27.3477" rx="5" fill="#F4F5FF"/>
<path d="M40.3096 214.512L50.2801 204.541" stroke="#A2A2C0" stroke-width="2" stroke-linecap="round" stroke-linejoin="round"/>
<path d="M40.3096 204.541H50.2801V214.512" stroke="#A2A2C0" stroke-width="2" stroke-linecap="round" stroke-linejoin="round"/>
<path d="M71.7878 205.253V202.69H85.4617V205.253" stroke="#A2A2C0" stroke-width="2" stroke-linecap="round" stroke-linejoin="round"/>
<path d="M76.061 216.363H81.1887" stroke="#A2A2C0" stroke-width="2" stroke-linecap="round" stroke-linejoin="round"/>
<path d="M78.6248 202.69V216.363" stroke="#A2A2C0" stroke-width="2" stroke-linecap="round" stroke-linejoin="round"/>
<g clip-path="url(#clip1)">
<path d="M121.356 212.945V206.108C121.355 205.808 121.276 205.514 121.126 205.254C120.976 204.995 120.761 204.779 120.501 204.63L114.519 201.211C114.259 201.061 113.964 200.982 113.664 200.982C113.364 200.982 113.069 201.061 112.81 201.211L106.827 204.63C106.568 204.779 106.352 204.995 106.202 205.254C106.052 205.514 105.973 205.808 105.973 206.108V212.945C105.973 213.245 106.052 213.539 106.202 213.799C106.352 214.058 106.568 214.274 106.827 214.423L112.81 217.842C113.069 217.992 113.364 218.071 113.664 218.071C113.964 218.071 114.259 217.992 114.519 217.842L120.501 214.423C120.761 214.274 120.976 214.058 121.126 213.799C121.276 213.539 121.355 213.245 121.356 212.945Z" stroke="#A2A2C0" stroke-width="2" stroke-linecap="round" stroke-linejoin="round"/>
</g>
<g clip-path="url(#clip2)">
<path d="M148.703 215.509L154.686 209.527L157.25 212.09L151.267 218.073L148.703 215.509Z" stroke="#A2A2C0" stroke-width="2" stroke-linecap="round" stroke-linejoin="round"/>
<path d="M153.831 210.381L152.549 203.972L140.157 200.98L143.148 213.372L149.558 214.654L153.831 210.381Z" stroke="#A2A2C0" stroke-width="2" stroke-linecap="round" stroke-linejoin="round"/>
<path d="M140.157 200.98L146.64 207.463" stroke="#A2A2C0" stroke-width="2" stroke-linecap="round" stroke-linejoin="round"/>
<path d="M147.849 210.381C148.793 210.381 149.558 209.616 149.558 208.672C149.558 207.728 148.793 206.963 147.849 206.963C146.905 206.963 146.14 207.728 146.14 208.672C146.14 209.616 146.905 210.381 147.849 210.381Z" stroke="#A2A2C0" stroke-width="2" stroke-linecap="round" stroke-linejoin="round"/>
</g>
<path d="M240.147 209.527H228.183" stroke="#A2A2C0" stroke-width="2" stroke-linecap="round" stroke-linejoin="round"/>
<path d="M234.165 215.509L228.183 209.527L234.165 203.544" stroke="#A2A2C0" stroke-width="2" stroke-linecap="round" stroke-linejoin="round"/>
<path d="M263.222 209.527H275.187" stroke="#A2A2C0" stroke-width="2" stroke-linecap="round" stroke-linejoin="round"/>
<path d="M269.204 203.544L275.187 209.527L269.204 215.509" stroke="#A2A2C0" stroke-width="2" stroke-linecap="round" stroke-linejoin="round"/>
<g clip-path="url(#clip3)">
<path d="M296.552 204.399H298.261H311.935" stroke="#A2A2C0" stroke-width="2" stroke-linecap="round" stroke-linejoin="round"/>
<path d="M300.825 204.399V202.69C300.825 202.236 301.005 201.802 301.326 201.481C301.646 201.16 302.081 200.98 302.535 200.98H305.953C306.406 200.98 306.841 201.16 307.162 201.481C307.482 201.802 307.662 202.236 307.662 202.69V204.399M310.226 204.399V216.363C310.226 216.817 310.046 217.252 309.725 217.572C309.405 217.893 308.97 218.073 308.517 218.073H299.971C299.517 218.073 299.083 217.893 298.762 217.572C298.442 217.252 298.261 216.817 298.261 216.363V204.399H310.226Z" stroke="#A2A2C0" stroke-width="2" stroke-linecap="round" stroke-linejoin="round"/>
<path d="M302.534 208.672V213.8" stroke="#A2A2C0" stroke-width="2" stroke-linecap="round" stroke-linejoin="round"/>
<path d="M305.953 208.672V213.8" stroke="#A2A2C0" stroke-width="2" stroke-linecap="round" stroke-linejoin="round"/>
</g>
<path d="M359.794 217.218H347.829C347.376 217.218 346.941 217.038 346.621 216.717C346.3 216.397 346.12 215.962 346.12 215.509V203.544C346.12 203.091 346.3 202.656 346.621 202.336C346.941 202.015 347.376 201.835 347.829 201.835H357.23L361.503 206.108V215.509C361.503 215.962 361.323 216.397 361.003 216.717C360.682 217.038 360.247 217.218 359.794 217.218Z" stroke="#A2A2C0" stroke-width="2" stroke-linecap="round" stroke-linejoin="round"/>
<path d="M358.085 217.218V210.381H349.539V217.218" stroke="#A2A2C0" stroke-width="2" stroke-linecap="round" stroke-linejoin="round"/>
<path d="M349.539 201.835V206.108H356.376" stroke="#A2A2C0" stroke-width="2" stroke-linecap="round" stroke-linejoin="round"/>
<path d="M396.542 212.09V215.509C396.542 215.962 396.362 216.397 396.042 216.717C395.721 217.038 395.286 217.218 394.833 217.218H382.868C382.415 217.218 381.98 217.038 381.66 216.717C381.339 216.397 381.159 215.962 381.159 215.509V212.09" stroke="#A2A2C0" stroke-width="2" stroke-linecap="round" stroke-linejoin="round"/>
<path d="M393.124 206.108L388.851 201.835L384.578 206.108" stroke="#A2A2C0" stroke-width="2" stroke-linecap="round" stroke-linejoin="round"/>
<path d="M388.851 201.835V212.09" stroke="#A2A2C0" stroke-width="2" stroke-linecap="round" stroke-linejoin="round"/>
<circle cx="185.452" cy="209.527" r="9.40079" fill="#323AFF"/>
<path d="M70.902 152C69.4099 147.466 66.8938 143.294 64.9 138.919C58.9129 125.78 54.9552 111.227 58.1165 97.1174C60.7171 85.5101 69.5635 71.8281 80.8427 64.7369C87.1295 60.7844 94.4529 57.8013 101.975 56.0698C119.161 52.1134 136.023 56.4964 152.054 62.0452C173.811 69.576 191.502 80.5851 208.01 94.668C218.643 103.74 229.989 111.491 244.584 115.286C253.089 117.497 262.877 119.307 271.812 118.597C283.965 117.631 295.169 109.436 304.229 103.066C313.278 96.7036 320.183 89.3081 326.924 81.1559C334.891 71.5201 342.806 61.8808 349.932 51.7631C355.75 43.5007 360.97 34.5663 368 27" stroke="url(#paint0_linear)" stroke-width="3" stroke-linecap="round" stroke-linejoin="round"/>
<g filter="url(#filter1_d)">
<path d="M-175.842 -26.5343C-154.784 -32.6159 -138.996 -51.3588 -132.256 -72.1984C-125.516 -93.038 -126.701 -115.691 -130.906 -137.185C-134.704 -156.561 -140.676 -177.606 -131.701 -195.198C-126.105 -206.165 -115.604 -213.643 -107.564 -222.98C-100.331 -231.383 -95.0986 -241.318 -92.2622 -252.037C-89.4258 -262.755 -89.059 -273.978 -91.1893 -284.859C-93.3196 -295.74 -97.8915 -305.995 -104.561 -314.853C-111.23 -323.71 -119.822 -330.939 -129.69 -335.994C-141.145 -341.858 -153.961 -344.611 -166.757 -345.986C-186.415 -348.088 -206.512 -347.037 -225.542 -341.698C-271.774 -328.722 -309.415 -288.953 -319.837 -242.072C-330.259 -195.191 -313.006 -143.224 -276.628 -111.892C-265.765 -102.529 -253.257 -94.6391 -243.542 -84.0477C-233.184 -72.7057 -233.615 -64.6257 -229.226 -51.674C-221.936 -30.1032 -198.339 -20.0362 -175.842 -26.5343Z" fill="url(#paint1_linear)"/>
</g>
</g>
<defs>
<filter id="filter0_d" x="-23.7622" y="160.597" width="480.815" height="127.859" filterUnits="userSpaceOnUse" color-interpolation-filters="sRGB">
<feFlood flood-opacity="0" result="BackgroundImageFix"/>
<feColorMatrix in="SourceAlpha" type="matrix" values="0 0 0 0 0 0 0 0 0 0 0 0 0 0 0 0 0 0 127 0"/>
<feOffset dy="15"/>
<feGaussianBlur stdDeviation="20"/>
<feColorMatrix type="matrix" values="0 0 0 0 0.195833 0 0 0 0 0.228 0 0 0 0 1 0 0 0 0.06 0"/>
<feBlend mode="normal" in2="BackgroundImageFix" result="effect1_dropShadow"/>
<feBlend mode="normal" in="SourceGraphic" in2="effect1_dropShadow" result="shape"/>
</filter>
<filter id="filter1_d" x="-441" y="-414" width="450.442" height="517.103" filterUnits="userSpaceOnUse" color-interpolation-filters="sRGB">
<feFlood flood-opacity="0" result="BackgroundImageFix"/>
<feColorMatrix in="SourceAlpha" type="matrix" values="0 0 0 0 0 0 0 0 0 0 0 0 0 0 0 0 0 0 127 0"/>
<feOffset dy="40"/>
<feGaussianBlur stdDeviation="37.5"/>
<feColorMatrix type="matrix" values="0 0 0 0 0.195833 0 0 0 0 0.228 0 0 0 0 1 0 0 0 0.19 0"/>
<feBlend mode="normal" in2="BackgroundImageFix" result="effect1_dropShadow"/>
<feBlend mode="normal" in="SourceGraphic" in2="effect1_dropShadow" result="shape"/>
</filter>
<linearGradient id="paint0_linear" x1="405.157" y1="82.1639" x2="22.0979" y2="-3.5781" gradientUnits="userSpaceOnUse">
<stop stop-color="#323AFF"/>
<stop offset="1" stop-color="#8E2DE2"/>
</linearGradient>
<linearGradient id="paint1_linear" x1="-270.504" y1="-62.3955" x2="-142.094" y2="-321.615" gradientUnits="userSpaceOnUse">
<stop stop-color="#8E2DE2"/>
<stop offset="1" stop-color="#323AFF"/>
</linearGradient>
<clipPath id="clip0">
<rect x="-215" y="-2231" width="1440" height="4298" fill="white"/>
</clipPath>
<clipPath id="clip1">
<rect x="103.409" y="199.271" width="20.5108" height="20.5108" fill="white"/>
</clipPath>
<clipPath id="clip2">
<rect x="138.448" y="199.271" width="20.5108" height="20.5108" fill="white"/>
</clipPath>
<clipPath id="clip3">
<rect x="293.988" y="199.271" width="20.5108" height="20.5108" fill="white"/>
</clipPath>
</defs>
</svg>
