<svg width="45" height="45" viewBox="0 0 45 45" fill="none" xmlns="http://www.w3.org/2000/svg">
<path d="M26.5459 1.57892H10.3617C9.28865 1.57892 8.25952 1.9948 7.50074 2.73508C6.74195 3.47535 6.31567 4.47938 6.31567 5.52629V37.1052C6.31567 38.1521 6.74195 39.1562 7.50074 39.8964C8.25952 40.6367 9.28865 41.0526 10.3617 41.0526H34.638C35.7111 41.0526 36.7403 40.6367 37.499 39.8964C38.2578 39.1562 38.6841 38.1521 38.6841 37.1052V13.421L26.5459 1.57892Z" stroke="#040254" stroke-width="2" stroke-linecap="round" stroke-linejoin="round"/>
<path d="M26.842 2.36841V13.421H37.8947" stroke="#040254" stroke-width="2" stroke-linecap="round" stroke-linejoin="round"/>
<path fill-rule="evenodd" clip-rule="evenodd" d="M15 13.75C14.3096 13.75 13.75 14.3096 13.75 15C13.75 15.6904 14.3096 16.25 15 16.25H16.9737H18.9474C19.6377 16.25 20.1974 15.6904 20.1974 15C20.1974 14.3096 19.6377 13.75 18.9474 13.75H16.9737H15ZM13.75 22.8947C13.75 22.2044 14.3096 21.6447 15 21.6447H30.7895C31.4798 21.6447 32.0395 22.2044 32.0395 22.8947C32.0395 23.5851 31.4798 24.1447 30.7895 24.1447H15C14.3096 24.1447 13.75 23.5851 13.75 22.8947ZM13.75 31.5789C13.75 30.8886 14.3096 30.3289 15 30.3289H30.7895C31.4798 30.3289 32.0395 30.8886 32.0395 31.5789C32.0395 32.2693 31.4798 32.8289 30.7895 32.8289H15C14.3096 32.8289 13.75 32.2693 13.75 31.5789Z" fill="url(#paint0_linear)"/>
<defs>
<linearGradient id="paint0_linear" x1="9.11666" y1="13.75" x2="40.5" y2="43" gradientUnits="userSpaceOnUse">
<stop stop-color="#8E2DE2"/>
<stop offset="1" stop-color="#323AFF"/>
</linearGradient>
</defs>
</svg>
