<svg width="408" height="67" viewBox="0 0 408 67" fill="none" xmlns="http://www.w3.org/2000/svg">
<g clip-path="url(#clip0)">
<path d="M41.7348 33.3862C41.7348 45.7792 32.8897 53.3199 23.4863 53.3199C19.6222 53.3199 14.6301 51.8505 11.9051 48.3194V67.0001H0V14.4435H11.9051V18.5441C14.6301 14.9333 19.6222 13.4639 23.4863 13.4639C32.8897 13.4639 41.7348 21.0842 41.7348 33.3862ZM30.3322 33.3862C30.3677 31.4859 29.8476 29.618 28.8381 28.0205C27.8286 26.4229 26.3755 25.1682 24.6641 24.4163C22.9527 23.6645 21.0605 23.4494 19.2289 23.7987C17.3972 24.148 15.709 25.0457 14.3795 26.3775C13.05 27.7092 12.1395 29.4146 11.7641 31.2762C11.3887 33.1378 11.5653 35.0713 12.2715 36.8301C12.9777 38.5889 14.1815 40.0933 15.7293 41.1516C17.2771 42.2099 19.0989 42.774 20.9623 42.7721C22.1857 42.7841 23.3994 42.5493 24.5335 42.0811C25.6677 41.6129 26.6998 40.9207 27.5706 40.0441C28.4415 39.1676 29.1338 38.1241 29.6077 36.9736C30.0817 35.8232 30.3279 34.5885 30.3322 33.3406V33.3862Z" fill="#040254"/>
<path d="M74.2782 13.9536V25.4582C72.0446 25.4582 70.9278 25.4582 68.9846 25.4582C64.9976 25.5493 59.1903 30.3448 59.1903 39.9472V52.6706H47.2964V14.4434H59.0339V21.0272C61.1447 15.7989 64.8748 13.9536 68.9511 13.9536H74.2782Z" fill="#040254"/>
<path d="M117.666 14.4434V52.6706H106.431V48.3193C103.84 51.9302 99.0266 53.3996 95.3524 53.3996C86.4962 53.3996 78.0867 45.859 78.0867 33.4773C78.0867 21.0956 86.4962 13.5436 95.3524 13.5436C99.0266 13.5436 103.84 15.0244 106.431 18.6238V14.4434H117.666ZM106.398 33.4773C106.358 31.7229 105.811 30.0195 104.826 28.581C103.84 27.1424 102.46 26.0328 100.859 25.3913C99.2574 24.7499 97.5058 24.6052 95.824 24.9754C94.1422 25.3456 92.6051 26.2142 91.4056 27.4723C90.206 28.7303 89.3976 30.3217 89.0816 32.0467C88.7657 33.7717 88.9563 35.5535 89.6296 37.1683C90.303 38.7832 91.429 40.1593 92.8663 41.1238C94.3037 42.0883 95.9883 42.5983 97.7088 42.5898C100.036 42.5245 102.245 41.5357 103.868 39.8338C105.491 38.1319 106.398 35.8513 106.398 33.4773Z" fill="#040254"/>
<path d="M123.428 33.386C123.428 21.2549 133.167 13.4637 144.1 13.4637C147.359 13.4342 150.572 14.2459 153.44 15.8232C156.309 17.4006 158.739 19.6922 160.506 22.4851L151.337 27.2464C150.499 26.1157 149.418 25.1954 148.177 24.5557C146.936 23.9161 145.569 23.5741 144.179 23.5558C138.717 23.5558 135.501 28.6361 135.501 33.386C135.501 38.1359 138.717 43.2845 144.179 43.2845C145.569 43.2687 146.938 42.9278 148.179 42.288C149.42 41.6482 150.5 40.7265 151.337 39.5939L160.506 44.4235C158.733 47.2151 156.296 49.5027 153.421 51.0724C150.546 52.6421 147.328 53.4427 144.067 53.3994C133.167 53.3994 123.428 45.5626 123.428 33.386Z" fill="#040254"/>
<path d="M190.102 23.3851H181.547L181.603 37.6462C181.502 39.9244 182.329 41.5191 184.495 42.0089C185.181 42.2124 185.892 42.316 186.606 42.3164H190.102V52.8984C190.102 52.8984 188.516 52.8984 186.26 52.9553C183.133 53.0237 178.833 52.9553 176.331 51.7479C170.077 48.8091 170.323 44.0706 170.323 44.0706V23.3851H164.605V14.2726H170.323V4.84106H182.228V14.2839H190.102V23.3851Z" fill="#040254"/>
<path d="M215.073 33.3861C215.073 21.255 224.521 13.4638 235.176 13.4638C238.365 13.451 241.505 14.2739 244.293 15.8535C247.082 17.4331 249.426 19.7166 251.101 22.4852L242.167 27.2465C241.367 26.1255 240.324 25.2087 239.119 24.5684C237.914 23.928 236.579 23.5814 235.22 23.5559C229.904 23.5559 226.788 28.6362 226.788 33.3861C226.788 38.136 229.904 43.2846 235.22 43.2846C236.58 43.2617 237.915 42.9163 239.121 42.2757C240.326 41.6351 241.369 40.717 242.167 39.594L251.101 44.3553C249.428 47.1254 247.084 49.4101 244.295 50.9899C241.506 52.5698 238.366 53.3917 235.176 53.3767C224.477 53.3995 215.073 45.5627 215.073 33.3861Z" fill="#040254"/>
<path d="M301.658 0.660767H313.552V52.6706H301.658V0.660767Z" fill="#040254"/>
<path d="M320.957 0.660767H332.862V52.6706H320.957V0.660767Z" fill="#040254"/>
<path d="M197.338 14.4432H209.232V52.6704H197.338V14.4432Z" fill="#040254"/>
<path d="M197.338 0.660767H209.232V10.5821H197.338V0.660767Z" fill="#040254"/>
<path d="M352.886 11.2768L372.564 0L392.32 11.2768V23.1914H376.529L384.76 38.9561L372.598 46.3715L352.886 34.8213V11.2768Z" fill="#323AFF"/>
<path d="M372.564 21.9385L390.433 51.9985L407.944 21.9954L372.564 21.9385ZM390.433 44.8793L378.762 25.3329H401.802L390.433 44.8793Z" fill="#8E2DE2"/>
<path d="M294.031 14.4434V52.6706H282.863V48.3193C280.261 51.9302 275.447 53.3996 271.784 53.3996C262.917 53.3996 254.518 45.859 254.518 33.4773C254.518 21.0956 262.917 13.5436 271.784 13.5436C275.447 13.5436 280.261 15.0244 282.863 18.6238V14.4434H294.031ZM282.773 33.4773C282.734 31.7229 282.187 30.0195 281.202 28.581C280.216 27.1424 278.836 26.0328 277.235 25.3913C275.633 24.7499 273.882 24.6052 272.2 24.9754C270.518 25.3456 268.981 26.2142 267.781 27.4723C266.582 28.7303 265.773 30.3217 265.457 32.0467C265.141 33.7717 265.332 35.5535 266.005 37.1683C266.679 38.7832 267.805 40.1593 269.242 41.1238C270.679 42.0883 272.364 42.5983 274.085 42.5898C276.411 42.5245 278.621 41.5357 280.244 39.8338C281.867 38.1319 282.774 35.8513 282.773 33.4773Z" fill="#040254"/>
</g>
<defs>
<clipPath id="clip0">
<rect width="408" height="67" fill="white"/>
</clipPath>
</defs>
</svg>
