<svg width="446" height="237" viewBox="0 0 446 237" fill="none" xmlns="http://www.w3.org/2000/svg">
<g filter="url(#filter0_d)">
<rect x="35" y="20" width="339" height="167" rx="12" fill="white"/>
</g>
<path d="M136.936 60H135.48L129.624 51.088V60H128.168V48.72H129.624L135.48 57.648V48.72H136.936V60ZM142.877 51.104C143.731 51.104 144.451 51.3173 145.037 51.744C145.635 52.1707 146.051 52.7413 146.285 53.456V51.216H147.741V60H146.285V57.76C146.051 58.4747 145.635 59.0453 145.037 59.472C144.451 59.8987 143.731 60.112 142.877 60.112C142.099 60.112 141.405 59.9307 140.797 59.568C140.189 59.2053 139.709 58.688 139.357 58.016C139.016 57.3333 138.845 56.5333 138.845 55.616C138.845 54.6987 139.016 53.8987 139.357 53.216C139.709 52.5333 140.189 52.0107 140.797 51.648C141.405 51.2853 142.099 51.104 142.877 51.104ZM143.293 52.4C142.397 52.4 141.677 52.688 141.133 53.264C140.6 53.8293 140.333 54.6133 140.333 55.616C140.333 56.6187 140.6 57.408 141.133 57.984C141.677 58.5493 142.397 58.832 143.293 58.832C143.869 58.832 144.381 58.6987 144.829 58.432C145.288 58.1653 145.645 57.792 145.901 57.312C146.157 56.8213 146.285 56.256 146.285 55.616C146.285 54.976 146.157 54.4107 145.901 53.92C145.645 53.4293 145.288 53.056 144.829 52.8C144.381 52.5333 143.869 52.4 143.293 52.4ZM153.659 51.104C154.512 51.104 155.232 51.3173 155.819 51.744C156.416 52.1707 156.832 52.7413 157.067 53.456V51.216H158.523V60.144C158.523 60.9547 158.352 61.6747 158.011 62.304C157.669 62.9333 157.189 63.424 156.571 63.776C155.952 64.128 155.232 64.304 154.411 64.304C153.227 64.304 152.261 64.016 151.515 63.44C150.768 62.8747 150.293 62.1067 150.091 61.136H151.531C151.701 61.7227 152.021 62.1813 152.491 62.512C152.971 62.8533 153.584 63.024 154.331 63.024C155.12 63.024 155.771 62.768 156.283 62.256C156.805 61.7547 157.067 61.0507 157.067 60.144V57.76C156.832 58.4747 156.416 59.0453 155.819 59.472C155.232 59.8987 154.512 60.112 153.659 60.112C152.88 60.112 152.187 59.9307 151.579 59.568C150.971 59.2053 150.491 58.688 150.139 58.016C149.797 57.3333 149.627 56.5333 149.627 55.616C149.627 54.6987 149.797 53.8987 150.139 53.216C150.491 52.5333 150.971 52.0107 151.579 51.648C152.187 51.2853 152.88 51.104 153.659 51.104ZM154.075 52.4C153.179 52.4 152.459 52.688 151.915 53.264C151.381 53.8293 151.115 54.6133 151.115 55.616C151.115 56.6187 151.381 57.408 151.915 57.984C152.459 58.5493 153.179 58.832 154.075 58.832C154.651 58.832 155.163 58.6987 155.611 58.432C156.069 58.1653 156.427 57.792 156.683 57.312C156.939 56.8213 157.067 56.256 157.067 55.616C157.067 54.976 156.939 54.4107 156.683 53.92C156.427 53.4293 156.069 53.056 155.611 52.8C155.163 52.5333 154.651 52.4 154.075 52.4ZM162.296 52.992C162.584 52.384 163.005 51.9147 163.56 51.584C164.115 51.2427 164.776 51.072 165.544 51.072V52.656H165.096C164.275 52.656 163.603 52.8693 163.08 53.296C162.557 53.712 162.296 54.4053 162.296 55.376V60H160.84V51.216H162.296V52.992ZM170.581 51.104C171.434 51.104 172.154 51.3173 172.741 51.744C173.338 52.1707 173.754 52.7413 173.989 53.456V51.216H175.445V60H173.989V57.76C173.754 58.4747 173.338 59.0453 172.741 59.472C172.154 59.8987 171.434 60.112 170.581 60.112C169.802 60.112 169.109 59.9307 168.501 59.568C167.893 59.2053 167.413 58.688 167.061 58.016C166.719 57.3333 166.549 56.5333 166.549 55.616C166.549 54.6987 166.719 53.8987 167.061 53.216C167.413 52.5333 167.893 52.0107 168.501 51.648C169.109 51.2853 169.802 51.104 170.581 51.104ZM170.997 52.4C170.101 52.4 169.381 52.688 168.837 53.264C168.303 53.8293 168.037 54.6133 168.037 55.616C168.037 56.6187 168.303 57.408 168.837 57.984C169.381 58.5493 170.101 58.832 170.997 58.832C171.573 58.832 172.085 58.6987 172.533 58.432C172.991 58.1653 173.349 57.792 173.605 57.312C173.861 56.8213 173.989 56.256 173.989 55.616C173.989 54.976 173.861 54.4107 173.605 53.92C173.349 53.4293 172.991 53.056 172.533 52.8C172.085 52.5333 171.573 52.4 170.997 52.4ZM178.594 49.536C178.295 49.536 178.05 49.456 177.858 49.296C177.676 49.1253 177.586 48.9067 177.586 48.64C177.586 48.3733 177.676 48.16 177.858 48C178.05 47.8293 178.295 47.744 178.594 47.744C178.882 47.744 179.116 47.8293 179.298 48C179.479 48.16 179.57 48.3733 179.57 48.64C179.57 48.9067 179.479 49.1253 179.298 49.296C179.116 49.456 178.882 49.536 178.594 49.536ZM176.146 62.88H176.754C177.138 62.88 177.415 62.7947 177.586 62.624C177.767 62.4533 177.858 62.16 177.858 61.744V51.216H179.33V61.792C179.33 63.3707 178.53 64.16 176.93 64.16H176.146V62.88ZM193.686 55.12C193.686 55.4293 193.664 55.696 193.622 55.92H186.598C186.63 56.9227 186.912 57.6747 187.446 58.176C187.99 58.6773 188.651 58.928 189.43 58.928C190.134 58.928 190.72 58.752 191.19 58.4C191.67 58.0373 191.963 57.5573 192.07 56.96H193.622C193.515 57.568 193.275 58.112 192.902 58.592C192.539 59.072 192.064 59.4453 191.478 59.712C190.891 59.9787 190.23 60.112 189.494 60.112C188.651 60.112 187.904 59.9307 187.254 59.568C186.603 59.2053 186.091 58.688 185.718 58.016C185.355 57.3333 185.174 56.5333 185.174 55.616C185.174 54.6987 185.355 53.8987 185.718 53.216C186.091 52.5333 186.603 52.0107 187.254 51.648C187.904 51.2853 188.651 51.104 189.494 51.104C190.347 51.104 191.088 51.2853 191.718 51.648C192.358 52.0107 192.843 52.496 193.174 53.104C193.515 53.712 193.686 54.384 193.686 55.12ZM192.214 55.216C192.246 54.5653 192.139 54.0213 191.894 53.584C191.648 53.1467 191.312 52.8213 190.886 52.608C190.459 52.3947 189.995 52.288 189.494 52.288C188.694 52.288 188.022 52.5387 187.478 53.04C186.934 53.5307 186.64 54.256 186.598 55.216H192.214ZM200.406 60L197.046 56.048V60H195.59V48.16H197.046V55.04L200.358 51.216H202.134L198.198 55.584L202.23 60H200.406ZM204.968 52.992C205.256 52.384 205.677 51.9147 206.232 51.584C206.786 51.2427 207.448 51.072 208.216 51.072V52.656H207.768C206.946 52.656 206.274 52.8693 205.752 53.296C205.229 53.712 204.968 54.4053 204.968 55.376V60H203.512V51.216H204.968V52.992ZM213.252 51.104C214.106 51.104 214.826 51.3173 215.412 51.744C216.01 52.1707 216.426 52.7413 216.66 53.456V51.216H218.116V60H216.66V57.76C216.426 58.4747 216.01 59.0453 215.412 59.472C214.826 59.8987 214.106 60.112 213.252 60.112C212.474 60.112 211.78 59.9307 211.172 59.568C210.564 59.2053 210.084 58.688 209.732 58.016C209.391 57.3333 209.22 56.5333 209.22 55.616C209.22 54.6987 209.391 53.8987 209.732 53.216C210.084 52.5333 210.564 52.0107 211.172 51.648C211.78 51.2853 212.474 51.104 213.252 51.104ZM213.668 52.4C212.772 52.4 212.052 52.688 211.508 53.264C210.975 53.8293 210.708 54.6133 210.708 55.616C210.708 56.6187 210.975 57.408 211.508 57.984C212.052 58.5493 212.772 58.832 213.668 58.832C214.244 58.832 214.756 58.6987 215.204 58.432C215.663 58.1653 216.02 57.792 216.276 57.312C216.532 56.8213 216.66 56.256 216.66 55.616C216.66 54.976 216.532 54.4107 216.276 53.92C216.02 53.4293 215.663 53.056 215.204 52.8C214.756 52.5333 214.244 52.4 213.668 52.4ZM225.058 51.072C226.082 51.072 226.908 51.4027 227.538 52.064C228.167 52.7147 228.482 53.6587 228.482 54.896V60H227.026V55.024C227.026 54.1493 226.802 53.4773 226.354 53.008C225.906 52.5387 225.298 52.304 224.53 52.304C223.73 52.304 223.09 52.5653 222.61 53.088C222.13 53.6 221.89 54.352 221.89 55.344V60H220.434V51.216H221.89V53.296C222.114 52.5813 222.508 52.032 223.074 51.648C223.65 51.264 224.311 51.072 225.058 51.072Z" fill="#A2A2C0"/>
<path fill-rule="evenodd" clip-rule="evenodd" d="M77 46.18C77 45.5283 77.5283 45 78.18 45H80V48H77V46.18ZM77 50H80V53H77V50ZM75 46.18V49V54V59V61.82C75 63.5763 76.4237 65 78.18 65H81H91H93.82C95.5763 65 97 63.5763 97 61.82V59V54V49V46.18C97 44.4237 95.5763 43 93.82 43H91H81H78.18C76.4237 43 75 44.4237 75 46.18ZM95 48V46.18C95 45.5283 94.4717 45 93.82 45H92V48H95ZM92 50H95V53H92V50ZM90 49V45H82V49V53H90V49ZM95 55V58H92V55H95ZM95 60H92V63H93.82C94.4717 63 95 62.4717 95 61.82V60ZM90 55V59V63H82V59V55H90ZM77 60V61.82C77 62.4717 77.5283 63 78.18 63H80V60H77ZM80 58H77V55H80V58Z" fill="url(#paint0_linear)"/>
<path d="M134.872 96.912V98.08L129.48 106.848H134.872V108H127.8V106.848L133.208 98.08H127.8V96.912H134.872ZM138.328 99.216V100.704C138.851 99.616 139.741 99.072 141 99.072V100.592H140.616C139.869 100.592 139.299 100.789 138.904 101.184C138.52 101.568 138.328 102.24 138.328 103.2V108H136.872V99.216H138.328ZM148.123 99.216V100.4L143.883 106.816H148.123V108H142.235V106.816L146.475 100.4H142.235V99.216H148.123ZM156.205 99.216H157.661V108H156.205V106.592C155.618 107.627 154.663 108.144 153.341 108.144C152.37 108.144 151.559 107.824 150.909 107.184C150.258 106.533 149.933 105.616 149.933 104.432V99.216H151.373V104.192C151.373 105.067 151.586 105.739 152.013 106.208C152.45 106.667 153.042 106.896 153.789 106.896C154.535 106.896 155.122 106.667 155.549 106.208C155.986 105.739 156.205 105.067 156.205 104.192V99.216ZM162.939 106.816H164.139V108H162.667C161.142 108 160.379 107.248 160.379 105.744V100.4H159.243V99.216H160.379V97.04H161.851V99.216H164.123V100.4H161.851V105.744C161.851 106.139 161.931 106.416 162.091 106.576C162.251 106.736 162.534 106.816 162.939 106.816ZM174.224 108.144C172.965 108.144 171.941 107.728 171.152 106.896C170.362 106.064 169.968 104.965 169.968 103.6C169.968 102.235 170.368 101.141 171.168 100.32C171.968 99.488 173.002 99.072 174.272 99.072C175.552 99.072 176.576 99.4667 177.344 100.256C178.122 101.035 178.512 102.032 178.512 103.248C178.512 103.557 178.49 103.845 178.448 104.112H171.456C171.498 104.987 171.77 105.68 172.272 106.192C172.784 106.693 173.434 106.944 174.224 106.944C174.821 106.944 175.322 106.811 175.728 106.544C176.144 106.277 176.448 105.925 176.64 105.488H178.208C177.93 106.256 177.45 106.891 176.768 107.392C176.096 107.893 175.248 108.144 174.224 108.144ZM176.992 103.056C176.981 102.213 176.714 101.541 176.192 101.04C175.669 100.528 175.018 100.272 174.24 100.272C173.472 100.272 172.832 100.523 172.32 101.024C171.808 101.515 171.525 102.192 171.472 103.056H176.992ZM181.781 108H180.325V96.16H181.781V103.104L185.141 99.216H187.189L183.045 103.584L187.189 108H185.221L181.781 104.144V108ZM189.984 99.216V100.704C190.507 99.616 191.397 99.072 192.656 99.072V100.592H192.272C191.525 100.592 190.955 100.789 190.56 101.184C190.176 101.568 189.984 102.24 189.984 103.2V108H188.528V99.216H189.984ZM200.387 106C200.973 105.403 201.267 104.608 201.267 103.616C201.267 102.624 200.973 101.829 200.387 101.232C199.811 100.635 199.112 100.336 198.291 100.336C197.48 100.336 196.781 100.624 196.195 101.2C195.619 101.776 195.331 102.56 195.331 103.552C195.331 104.544 195.624 105.349 196.211 105.968C196.797 106.587 197.496 106.896 198.307 106.896C199.117 106.896 199.811 106.597 200.387 106ZM198.035 108.144C196.84 108.144 195.843 107.717 195.043 106.864C194.243 106 193.843 104.901 193.843 103.568C193.843 102.224 194.237 101.141 195.027 100.32C195.827 99.488 196.829 99.072 198.035 99.072C198.781 99.072 199.432 99.248 199.987 99.6C200.552 99.952 200.979 100.411 201.267 100.976V99.216H202.739V108H201.267V106.208C200.979 106.784 200.552 107.253 199.987 107.616C199.432 107.968 198.781 108.144 198.035 108.144ZM206.594 99.216V100.64C207.191 99.5947 208.146 99.072 209.458 99.072C210.428 99.072 211.239 99.3973 211.89 100.048C212.54 100.688 212.866 101.605 212.866 102.8V108H211.426V103.04C211.426 102.155 211.212 101.483 210.786 101.024C210.359 100.565 209.767 100.336 209.01 100.336C208.263 100.336 207.671 100.565 207.234 101.024C206.807 101.483 206.594 102.155 206.594 103.04V108H205.138V99.216H206.594ZM221.376 99.216H222.832V108H221.376V106.592C220.79 107.627 219.835 108.144 218.512 108.144C217.542 108.144 216.731 107.824 216.08 107.184C215.43 106.533 215.104 105.616 215.104 104.432V99.216H216.544V104.192C216.544 105.067 216.758 105.739 217.184 106.208C217.622 106.667 218.214 106.896 218.96 106.896C219.707 106.896 220.294 106.667 220.72 106.208C221.158 105.739 221.376 105.067 221.376 104.192V99.216Z" fill="#A2A2C0"/>
<g clip-path="url(#clip0)">
<path fill-rule="evenodd" clip-rule="evenodd" d="M81.13 92.0087C81.1347 91.4564 80.6909 91.0048 80.1387 91C79.5864 90.9953 79.1348 91.4391 79.13 91.9913L79.0945 96.0945L74.9913 96.13C74.4391 96.1348 73.9953 96.5864 74 97.1387C74.0048 97.6909 74.4564 98.1347 75.0087 98.13L79.0771 98.0947L79 106.991L79 106.991V107C79 107.796 79.3161 108.559 79.8787 109.121C80.4413 109.684 81.2044 110 82 110H91V114C91 114.552 91.4477 115 92 115C92.5523 115 93 114.552 93 114V110H97C97.5523 110 98 109.552 98 109C98 108.448 97.5523 108 97 108H93V99C93 98.2044 92.6839 97.4413 92.1213 96.8787C91.5587 96.3161 90.7957 96 90 96V96L89.9913 96L81.0947 96.0771L81.13 92.0087ZM81.0774 98.0774L81 107.004C81.001 107.268 81.1062 107.52 81.2929 107.707C81.4804 107.895 81.7348 108 82 108H91V99C91 98.7348 90.8946 98.4804 90.7071 98.2929C90.5204 98.1062 90.2675 98.001 90.0036 98L81.0774 98.0774Z" fill="url(#paint1_linear)"/>
</g>
<path d="M127.704 149.08V147.912H135.016V149.08H132.088V159H130.632V149.08H127.704ZM138.39 150.216V151.704C138.913 150.616 139.804 150.072 141.062 150.072V151.592H140.678C139.932 151.592 139.361 151.789 138.966 152.184C138.582 152.568 138.39 153.24 138.39 154.2V159H136.934V150.216H138.39ZM145.289 158.856L141.817 150.216H143.417L146.105 157.32L148.841 150.216H150.345L145.049 163.112H143.545L145.289 158.856ZM156.147 157.896C156.969 157.896 157.667 157.592 158.243 156.984C158.83 156.365 159.123 155.56 159.123 154.568C159.123 153.565 158.83 152.776 158.243 152.2C157.667 151.624 156.969 151.336 156.147 151.336C155.337 151.336 154.638 151.635 154.051 152.232C153.475 152.829 153.187 153.624 153.187 154.616C153.187 155.597 153.475 156.392 154.051 157C154.638 157.597 155.337 157.896 156.147 157.896ZM156.435 150.072C157.641 150.072 158.638 150.488 159.427 151.32C160.227 152.141 160.627 153.224 160.627 154.568C160.627 155.901 160.227 157 159.427 157.864C158.627 158.717 157.63 159.144 156.435 159.144C155.689 159.144 155.033 158.968 154.467 158.616C153.913 158.253 153.486 157.784 153.187 157.208V159H151.731V147.16H153.187V151.976C153.486 151.411 153.913 150.952 154.467 150.6C155.033 150.248 155.689 150.072 156.435 150.072ZM168.703 150.216V151.704C169.226 150.616 170.116 150.072 171.375 150.072V151.592H170.991C170.244 151.592 169.674 151.789 169.279 152.184C168.895 152.568 168.703 153.24 168.703 154.2V159H167.247V150.216H168.703ZM175.602 158.856L172.13 150.216H173.73L176.418 157.32L179.154 150.216H180.658L175.362 163.112H173.858L175.602 158.856ZM181.724 152.696C181.724 151.96 182.028 151.341 182.636 150.84C183.254 150.328 184.049 150.072 185.02 150.072C186.001 150.072 186.769 150.323 187.324 150.824C187.878 151.315 188.182 151.992 188.236 152.856H186.732C186.71 152.365 186.545 151.971 186.236 151.672C185.926 151.373 185.494 151.224 184.94 151.224C184.396 151.224 183.964 151.357 183.644 151.624C183.334 151.88 183.18 152.216 183.18 152.632C183.18 153.037 183.356 153.352 183.708 153.576C184.07 153.8 184.502 153.965 185.004 154.072C185.516 154.168 186.022 154.285 186.524 154.424C187.036 154.552 187.468 154.803 187.82 155.176C188.182 155.539 188.364 156.061 188.364 156.744C188.364 157.416 188.054 157.987 187.436 158.456C186.828 158.915 186.033 159.144 185.052 159.144C184.07 159.144 183.281 158.899 182.684 158.408C182.097 157.917 181.777 157.24 181.724 156.376H183.228C183.249 156.867 183.42 157.261 183.74 157.56C184.07 157.848 184.518 157.992 185.084 157.992C185.66 157.992 186.108 157.869 186.428 157.624C186.758 157.379 186.924 157.069 186.924 156.696C186.924 156.312 186.796 156.008 186.54 155.784C186.284 155.56 185.964 155.405 185.58 155.32C185.196 155.235 184.774 155.133 184.316 155.016C183.868 154.899 183.452 154.776 183.068 154.648C182.684 154.509 182.364 154.275 182.108 153.944C181.852 153.613 181.724 153.197 181.724 152.696ZM194.21 157.944C195.031 157.944 195.74 157.651 196.338 157.064C196.946 156.467 197.25 155.645 197.25 154.6C197.25 153.555 196.962 152.739 196.386 152.152C195.81 151.565 195.106 151.272 194.274 151.272C193.452 151.272 192.764 151.565 192.21 152.152C191.655 152.739 191.378 153.56 191.378 154.616C191.378 155.661 191.644 156.477 192.178 157.064C192.711 157.651 193.388 157.944 194.21 157.944ZM191.09 157.896C190.29 157.064 189.89 155.971 189.89 154.616C189.89 153.261 190.311 152.168 191.154 151.336C191.996 150.493 193.052 150.072 194.322 150.072C195.591 150.072 196.647 150.493 197.49 151.336C198.332 152.168 198.754 153.261 198.754 154.616C198.754 155.96 198.311 157.053 197.426 157.896C196.551 158.728 195.479 159.144 194.21 159.144C192.94 159.144 191.9 158.728 191.09 157.896ZM210.639 150.216H212.111L209.343 159H207.839L205.855 152.024L203.871 159H202.351L199.567 150.216H201.071L203.103 157.544L205.167 150.216H206.671L208.623 157.56L210.639 150.216ZM219.465 157C220.052 156.403 220.345 155.608 220.345 154.616C220.345 153.624 220.052 152.829 219.465 152.232C218.889 151.635 218.19 151.336 217.369 151.336C216.558 151.336 215.86 151.624 215.273 152.2C214.697 152.776 214.409 153.56 214.409 154.552C214.409 155.544 214.702 156.349 215.289 156.968C215.876 157.587 216.574 157.896 217.385 157.896C218.196 157.896 218.889 157.597 219.465 157ZM217.113 159.144C215.918 159.144 214.921 158.717 214.121 157.864C213.321 157 212.921 155.901 212.921 154.568C212.921 153.224 213.316 152.141 214.105 151.32C214.905 150.488 215.908 150.072 217.113 150.072C217.86 150.072 218.51 150.248 219.065 150.6C219.63 150.952 220.057 151.411 220.345 151.976V150.216H221.817V159H220.345V157.208C220.057 157.784 219.63 158.253 219.065 158.616C218.51 158.968 217.86 159.144 217.113 159.144ZM225.672 150.216V151.64C226.269 150.595 227.224 150.072 228.536 150.072C229.506 150.072 230.317 150.397 230.968 151.048C231.618 151.688 231.944 152.605 231.944 153.8V159H230.504V154.04C230.504 153.155 230.29 152.483 229.864 152.024C229.437 151.565 228.845 151.336 228.088 151.336C227.341 151.336 226.749 151.565 226.312 152.024C225.885 152.483 225.672 153.155 225.672 154.04V159H224.216V150.216H225.672ZM235.703 148.52C235.511 148.712 235.276 148.808 234.999 148.808C234.721 148.808 234.487 148.712 234.295 148.52C234.113 148.328 234.023 148.093 234.023 147.816C234.023 147.539 234.119 147.304 234.311 147.112C234.503 146.92 234.732 146.824 234.999 146.824C235.276 146.824 235.511 146.92 235.703 147.112C235.895 147.304 235.991 147.539 235.991 147.816C235.991 148.093 235.895 148.328 235.703 148.52ZM234.263 159V150.216H235.719V159H234.263ZM244.09 157C244.677 156.403 244.97 155.608 244.97 154.616C244.97 153.624 244.677 152.829 244.09 152.232C243.514 151.635 242.815 151.336 241.994 151.336C241.183 151.336 240.485 151.624 239.898 152.2C239.322 152.776 239.034 153.56 239.034 154.552C239.034 155.544 239.327 156.349 239.914 156.968C240.501 157.587 241.199 157.896 242.01 157.896C242.821 157.896 243.514 157.597 244.09 157ZM241.738 159.144C240.543 159.144 239.546 158.717 238.746 157.864C237.946 157 237.546 155.901 237.546 154.568C237.546 153.224 237.941 152.141 238.73 151.32C239.53 150.488 240.533 150.072 241.738 150.072C242.485 150.072 243.135 150.248 243.69 150.6C244.255 150.952 244.682 151.411 244.97 151.976V150.216H246.442V159H244.97V157.208C244.682 157.784 244.255 158.253 243.69 158.616C243.135 158.968 242.485 159.144 241.738 159.144Z" fill="#A2A2C0"/>
<path fill-rule="evenodd" clip-rule="evenodd" d="M91.2071 146.207C91.4174 145.997 91.7026 145.879 92 145.879C92.1473 145.879 92.2931 145.908 92.4291 145.964C92.5652 146.02 92.6888 146.103 92.7929 146.207C92.897 146.311 92.9796 146.435 93.036 146.571C93.0923 146.707 93.1213 146.853 93.1213 147C93.1213 147.147 93.0923 147.293 93.036 147.429C92.9796 147.565 92.897 147.689 92.7929 147.793L80.4888 160.097L78.3744 160.626L78.903 158.511L91.2071 146.207ZM92 143.879C91.1722 143.879 90.3783 144.208 89.7929 144.793L77.2929 157.293C77.1648 157.421 77.0738 157.582 77.0299 157.757L76.0299 161.757C75.9447 162.098 76.0445 162.459 76.2929 162.707C76.5413 162.955 76.9018 163.055 77.2426 162.97L81.2426 161.97C81.4184 161.926 81.579 161.835 81.7071 161.707L94.2071 149.207C94.497 148.917 94.7269 148.573 94.8837 148.194C95.0406 147.816 95.1213 147.41 95.1213 147C95.1213 146.59 95.0406 146.184 94.8837 145.806C94.7269 145.427 94.497 145.083 94.2071 144.793C93.9173 144.503 93.5732 144.273 93.1945 144.116C92.8158 143.959 92.4099 143.879 92 143.879ZM86 161C85.4477 161 85 161.448 85 162C85 162.552 85.4477 163 86 163H95C95.5523 163 96 162.552 96 162C96 161.448 95.5523 161 95 161H86Z" fill="url(#paint2_linear)"/>
<circle cx="420" cy="46" r="26" fill="url(#paint3_linear)"/>
<path d="M419.789 47.3333C420.526 47.3333 421.123 46.7364 421.123 46C421.123 45.2636 420.526 44.6667 419.789 44.6667C419.053 44.6667 418.456 45.2636 418.456 46C418.456 46.7364 419.053 47.3333 419.789 47.3333Z" fill="white" stroke="white" stroke-width="3" stroke-linecap="round" stroke-linejoin="round"/>
<path d="M430.877 47.3333C431.613 47.3333 432.21 46.7364 432.21 46C432.21 45.2636 431.613 44.6667 430.877 44.6667C430.141 44.6667 429.544 45.2636 429.544 46C429.544 46.7364 430.141 47.3333 430.877 47.3333Z" fill="white" stroke="white" stroke-width="3" stroke-linecap="round" stroke-linejoin="round"/>
<path d="M408.702 47.3333C409.438 47.3333 410.035 46.7364 410.035 46C410.035 45.2636 409.438 44.6667 408.702 44.6667C407.965 44.6667 407.368 45.2636 407.368 46C407.368 46.7364 407.965 47.3333 408.702 47.3333Z" fill="white" stroke="white" stroke-width="3" stroke-linecap="round" stroke-linejoin="round"/>
<defs>
<filter id="filter0_d" x="0" y="0" width="409" height="237" filterUnits="userSpaceOnUse" color-interpolation-filters="sRGB">
<feFlood flood-opacity="0" result="BackgroundImageFix"/>
<feColorMatrix in="SourceAlpha" type="matrix" values="0 0 0 0 0 0 0 0 0 0 0 0 0 0 0 0 0 0 127 0"/>
<feOffset dy="15"/>
<feGaussianBlur stdDeviation="17.5"/>
<feColorMatrix type="matrix" values="0 0 0 0 0.195833 0 0 0 0 0.228 0 0 0 0 1 0 0 0 0.1 0"/>
<feBlend mode="normal" in2="BackgroundImageFix" result="effect1_dropShadow"/>
<feBlend mode="normal" in="SourceGraphic" in2="effect1_dropShadow" result="shape"/>
</filter>
<linearGradient id="paint0_linear" x1="67.5" y1="35" x2="86" y2="65" gradientUnits="userSpaceOnUse">
<stop stop-color="#8E2DE2"/>
<stop offset="1" stop-color="#323AFF"/>
</linearGradient>
<linearGradient id="paint1_linear" x1="70" y1="91" x2="86" y2="115" gradientUnits="userSpaceOnUse">
<stop stop-color="#8E2DE2"/>
<stop offset="1" stop-color="#323AFF"/>
</linearGradient>
<linearGradient id="paint2_linear" x1="80" y1="144" x2="86" y2="163" gradientUnits="userSpaceOnUse">
<stop stop-color="#8E2DE2"/>
<stop offset="1" stop-color="#323AFF"/>
</linearGradient>
<linearGradient id="paint3_linear" x1="388.5" y1="20" x2="420" y2="72" gradientUnits="userSpaceOnUse">
<stop stop-color="#8E2DE2"/>
<stop offset="1" stop-color="#323AFF"/>
</linearGradient>
<clipPath id="clip0">
<rect x="74" y="91" width="24" height="24" fill="white"/>
</clipPath>
</defs>
</svg>
