<svg width="472" height="143" viewBox="0 0 472 143" fill="none" xmlns="http://www.w3.org/2000/svg">
<g filter="url(#filter0_d)">
<rect x="35" y="37" width="402" height="56" rx="12" fill="white"/>
</g>
<path d="M70.3856 57.34C71.3456 57.34 72.1656 57.5067 72.8456 57.84C73.539 58.1733 74.059 58.6333 74.4056 59.22C74.7656 59.8067 74.9456 60.46 74.9456 61.18C74.9456 62.0867 74.699 62.8333 74.2056 63.42C73.7123 63.9933 73.059 64.3467 72.2456 64.48V64.58C74.219 65.1667 75.2056 66.3267 75.2056 68.06C75.2056 69.2733 74.799 70.26 73.9856 71.02C73.1723 71.7667 72.0256 72.14 70.5456 72.14C68.9723 72.14 67.719 71.7533 66.7856 70.98C65.8523 70.1933 65.3323 69.0133 65.2256 67.44H67.9856C68.0523 68.16 68.2856 68.7333 68.6856 69.16C69.099 69.5733 69.679 69.78 70.4256 69.78C71.0656 69.78 71.5656 69.6067 71.9256 69.26C72.2856 68.9 72.4656 68.4333 72.4656 67.86C72.4656 67.18 72.2056 66.66 71.6856 66.3C71.1656 65.94 70.399 65.76 69.3856 65.76H68.8056V63.46H69.3856C71.2523 63.4867 72.1856 62.84 72.1856 61.52C72.1856 60.9467 72.019 60.5 71.6856 60.18C71.3523 59.8467 70.899 59.68 70.3256 59.68C69.7256 59.68 69.2323 59.8733 68.8456 60.26C68.459 60.6333 68.239 61.16 68.1856 61.84H65.4256C65.5056 60.4 65.9723 59.2933 66.8256 58.52C67.679 57.7333 68.8656 57.34 70.3856 57.34ZM78.7583 69.06V72H75.7183V69.06H78.7583Z" fill="url(#paint0_linear)"/>
<path d="M88.128 66.52V72H85.848V57.88H90.648C92.2746 57.88 93.4946 58.2667 94.308 59.04C95.1346 59.8133 95.548 60.8733 95.548 62.22C95.548 63.5533 95.128 64.6067 94.288 65.38C93.448 66.14 92.2346 66.52 90.648 66.52H88.128ZM90.408 64.66C92.288 64.66 93.228 63.8467 93.228 62.22C93.228 61.42 93.0013 60.8133 92.548 60.4C92.108 59.9733 91.3946 59.76 90.408 59.76H88.128V64.66H90.408ZM98.6272 63.14C99.0005 62.42 99.5339 61.8533 100.227 61.44C100.921 61.0133 101.721 60.8 102.627 60.8V63.28H101.947C100.947 63.28 100.141 63.5267 99.5272 64.02C98.9272 64.5 98.6272 65.3 98.6272 66.42V72H96.3472V60.98H98.6272V63.14ZM108.175 60.84C109.242 60.84 110.202 61.0667 111.055 61.52C111.909 61.9733 112.575 62.6267 113.055 63.48C113.535 64.3333 113.775 65.3333 113.775 66.48C113.775 67.64 113.535 68.6467 113.055 69.5C112.575 70.3533 111.909 71.0067 111.055 71.46C110.202 71.9133 109.242 72.14 108.175 72.14C107.109 72.14 106.149 71.9133 105.295 71.46C104.455 71.0067 103.789 70.3533 103.295 69.5C102.815 68.6333 102.575 67.6267 102.575 66.48C102.575 65.3333 102.815 64.3333 103.295 63.48C103.789 62.6267 104.455 61.9733 105.295 61.52C106.149 61.0667 107.109 60.84 108.175 60.84ZM108.175 62.82C107.589 62.82 107.049 62.9533 106.555 63.22C106.062 63.4867 105.662 63.9 105.355 64.46C105.062 65.0067 104.915 65.68 104.915 66.48C104.915 67.2933 105.062 67.9733 105.355 68.52C105.662 69.0667 106.062 69.4733 106.555 69.74C107.049 70.0067 107.589 70.14 108.175 70.14C108.762 70.14 109.302 70.0067 109.795 69.74C110.289 69.4733 110.682 69.0667 110.975 68.52C111.282 67.9733 111.435 67.2933 111.435 66.48C111.435 65.68 111.282 65.0067 110.975 64.46C110.682 63.9 110.289 63.4867 109.795 63.22C109.302 62.9533 108.762 62.82 108.175 62.82ZM121.087 60.84C122.047 60.84 122.901 61.0667 123.647 61.52C124.407 61.9733 125.001 62.6267 125.427 63.48C125.854 64.3333 126.067 65.3333 126.067 66.48C126.067 67.64 125.854 68.6467 125.427 69.5C125.001 70.3533 124.407 71.0067 123.647 71.46C122.901 71.9133 122.047 72.14 121.087 72.14C120.087 72.14 119.234 71.8933 118.527 71.4C117.821 70.9067 117.327 70.2533 117.047 69.44V72H114.767V57.2H117.047V63.54C117.327 62.7267 117.821 62.0733 118.527 61.58C119.234 61.0867 120.087 60.84 121.087 60.84ZM120.387 62.84C119.747 62.84 119.174 62.9933 118.667 63.3C118.161 63.5933 117.761 64.02 117.467 64.58C117.174 65.1267 117.027 65.76 117.027 66.48C117.027 67.2133 117.174 67.8533 117.467 68.4C117.761 68.9467 118.161 69.3733 118.667 69.68C119.174 69.9733 119.747 70.12 120.387 70.12C121.401 70.12 122.214 69.8 122.827 69.16C123.441 68.5067 123.747 67.6133 123.747 66.48C123.747 65.36 123.441 64.4733 122.827 63.82C122.214 63.1667 121.401 62.84 120.387 62.84ZM129.344 57.2V72H127.064V57.2H129.344ZM141.143 65.96C141.143 66.3333 141.116 66.66 141.063 66.94H132.583C132.623 68.0733 132.936 68.9133 133.523 69.46C134.109 70.0067 134.836 70.28 135.703 70.28C136.463 70.28 137.103 70.0867 137.623 69.7C138.156 69.3133 138.483 68.8 138.603 68.16H141.043C140.896 68.9333 140.589 69.62 140.123 70.22C139.656 70.82 139.049 71.2933 138.303 71.64C137.556 71.9733 136.723 72.14 135.803 72.14C134.736 72.14 133.789 71.9133 132.963 71.46C132.149 71.0067 131.509 70.3533 131.043 69.5C130.576 68.6467 130.343 67.64 130.343 66.48C130.343 65.3333 130.576 64.3333 131.043 63.48C131.509 62.6267 132.149 61.9733 132.963 61.52C133.789 61.0667 134.736 60.84 135.803 60.84C136.883 60.84 137.823 61.0667 138.623 61.52C139.436 61.96 140.056 62.5733 140.483 63.36C140.923 64.1333 141.143 65 141.143 65.96ZM138.843 65.9C138.869 65.18 138.743 64.58 138.463 64.1C138.196 63.6067 137.823 63.2467 137.343 63.02C136.876 62.78 136.363 62.66 135.803 62.66C134.909 62.66 134.163 62.9333 133.563 63.48C132.963 64.0267 132.636 64.8333 132.583 65.9H138.843ZM155.924 60.8C157.231 60.8 158.271 61.2133 159.044 62.04C159.831 62.8667 160.224 64.0467 160.224 65.58V72H157.944V65.82C157.944 64.86 157.704 64.12 157.224 63.6C156.744 63.0667 156.084 62.8 155.244 62.8C154.351 62.8 153.637 63.0867 153.104 63.66C152.584 64.22 152.324 65.0467 152.324 66.14V72H150.044V65.82C150.044 64.86 149.804 64.12 149.324 63.6C148.844 63.0667 148.184 62.8 147.344 62.8C146.451 62.8 145.737 63.0867 145.204 63.66C144.684 64.22 144.424 65.0467 144.424 66.14V72H142.144V60.98H144.424V63.28C144.704 62.48 145.171 61.8667 145.824 61.44C146.477 61.0133 147.244 60.8 148.124 60.8C149.044 60.8 149.837 61.0267 150.504 61.48C151.184 61.9333 151.677 62.5867 151.984 63.44C152.304 62.6133 152.817 61.9667 153.524 61.5C154.231 61.0333 155.031 60.8 155.924 60.8ZM162.986 60.98L166.286 69.08L169.346 60.98H171.886L165.226 77.24H162.686L165.066 71.74L160.426 60.98H162.986ZM181.213 70.02V72H179.813C178.64 72 177.746 71.72 177.133 71.16C176.533 70.5867 176.233 69.64 176.233 68.32V62.92H174.653V60.98H176.233V58.24H178.533V60.98H181.193V62.92H178.533V68.36C178.533 68.9867 178.646 69.42 178.873 69.66C179.113 69.9 179.526 70.02 180.113 70.02H181.213ZM192.389 65.96C192.389 66.3333 192.362 66.66 192.309 66.94H183.829C183.869 68.0733 184.182 68.9133 184.769 69.46C185.355 70.0067 186.082 70.28 186.949 70.28C187.709 70.28 188.349 70.0867 188.869 69.7C189.402 69.3133 189.729 68.8 189.849 68.16H192.289C192.142 68.9333 191.835 69.62 191.369 70.22C190.902 70.82 190.295 71.2933 189.549 71.64C188.802 71.9733 187.969 72.14 187.049 72.14C185.982 72.14 185.035 71.9133 184.209 71.46C183.395 71.0067 182.755 70.3533 182.289 69.5C181.822 68.6467 181.589 67.64 181.589 66.48C181.589 65.3333 181.822 64.3333 182.289 63.48C182.755 62.6267 183.395 61.9733 184.209 61.52C185.035 61.0667 185.982 60.84 187.049 60.84C188.129 60.84 189.069 61.0667 189.869 61.52C190.682 61.96 191.302 62.5733 191.729 63.36C192.169 64.1333 192.389 65 192.389 65.96ZM190.089 65.9C190.115 65.18 189.989 64.58 189.709 64.1C189.442 63.6067 189.069 63.2467 188.589 63.02C188.122 62.78 187.609 62.66 187.049 62.66C186.155 62.66 185.409 62.9333 184.809 63.48C184.209 64.0267 183.882 64.8333 183.829 65.9H190.089ZM198.29 60.84C199.717 60.84 200.897 61.22 201.83 61.98C202.763 62.7267 203.343 63.7467 203.57 65.04H201.15C201.017 64.3467 200.69 63.8067 200.17 63.42C199.663 63.02 199.023 62.82 198.25 62.82C197.37 62.82 196.637 63.1333 196.05 63.76C195.463 64.3733 195.17 65.28 195.17 66.48C195.17 67.68 195.463 68.5933 196.05 69.22C196.637 69.8467 197.37 70.16 198.25 70.16C199.023 70.16 199.663 69.96 200.17 69.56C200.69 69.16 201.017 68.6133 201.15 67.92H203.57C203.343 69.2133 202.763 70.24 201.83 71C200.897 71.76 199.717 72.14 198.29 72.14C197.223 72.14 196.277 71.9133 195.45 71.46C194.637 71.0067 193.997 70.3533 193.53 69.5C193.063 68.6467 192.83 67.64 192.83 66.48C192.83 65.3333 193.063 64.3333 193.53 63.48C193.997 62.6267 194.637 61.9733 195.45 61.52C196.277 61.0667 197.223 60.84 198.29 60.84ZM210.733 60.8C212.013 60.8 213.04 61.2133 213.813 62.04C214.586 62.8667 214.973 64.0467 214.973 65.58V72H212.693V65.82C212.693 64.8333 212.44 64.0733 211.933 63.54C211.426 62.9933 210.733 62.72 209.853 62.72C208.946 62.72 208.22 63.0133 207.673 63.6C207.126 64.1733 206.853 65.02 206.853 66.14V72H204.573V57.2H206.853V63.4C207.146 62.5733 207.64 61.9333 208.333 61.48C209.026 61.0267 209.826 60.8 210.733 60.8ZM222.599 60.8C223.879 60.8 224.906 61.2133 225.679 62.04C226.453 62.8667 226.839 64.0467 226.839 65.58V72H224.559V65.82C224.559 64.8333 224.306 64.0733 223.799 63.54C223.293 62.9933 222.599 62.72 221.719 62.72C220.813 62.72 220.086 63.0133 219.539 63.6C218.993 64.1733 218.719 65.02 218.719 66.14V72H216.439V60.98H218.719V63.4C219.013 62.5733 219.506 61.9333 220.199 61.48C220.893 61.0267 221.693 60.8 222.599 60.8ZM233.346 60.84C234.412 60.84 235.372 61.0667 236.226 61.52C237.079 61.9733 237.746 62.6267 238.226 63.48C238.706 64.3333 238.946 65.3333 238.946 66.48C238.946 67.64 238.706 68.6467 238.226 69.5C237.746 70.3533 237.079 71.0067 236.226 71.46C235.372 71.9133 234.412 72.14 233.346 72.14C232.279 72.14 231.319 71.9133 230.466 71.46C229.626 71.0067 228.959 70.3533 228.466 69.5C227.986 68.6333 227.746 67.6267 227.746 66.48C227.746 65.3333 227.986 64.3333 228.466 63.48C228.959 62.6267 229.626 61.9733 230.466 61.52C231.319 61.0667 232.279 60.84 233.346 60.84ZM233.346 62.82C232.759 62.82 232.219 62.9533 231.726 63.22C231.232 63.4867 230.832 63.9 230.526 64.46C230.232 65.0067 230.086 65.68 230.086 66.48C230.086 67.2933 230.232 67.9733 230.526 68.52C230.832 69.0667 231.232 69.4733 231.726 69.74C232.219 70.0067 232.759 70.14 233.346 70.14C233.932 70.14 234.472 70.0067 234.966 69.74C235.459 69.4733 235.852 69.0667 236.146 68.52C236.452 67.9733 236.606 67.2933 236.606 66.48C236.606 65.68 236.452 65.0067 236.146 64.46C235.852 63.9 235.459 63.4867 234.966 63.22C234.472 62.9533 233.932 62.82 233.346 62.82ZM242.218 57.2V72H239.938V57.2H242.218ZM248.817 60.84C249.884 60.84 250.844 61.0667 251.697 61.52C252.55 61.9733 253.217 62.6267 253.697 63.48C254.177 64.3333 254.417 65.3333 254.417 66.48C254.417 67.64 254.177 68.6467 253.697 69.5C253.217 70.3533 252.55 71.0067 251.697 71.46C250.844 71.9133 249.884 72.14 248.817 72.14C247.75 72.14 246.79 71.9133 245.937 71.46C245.097 71.0067 244.43 70.3533 243.937 69.5C243.457 68.6333 243.217 67.6267 243.217 66.48C243.217 65.3333 243.457 64.3333 243.937 63.48C244.43 62.6267 245.097 61.9733 245.937 61.52C246.79 61.0667 247.75 60.84 248.817 60.84ZM248.817 62.82C248.23 62.82 247.69 62.9533 247.197 63.22C246.704 63.4867 246.304 63.9 245.997 64.46C245.704 65.0067 245.557 65.68 245.557 66.48C245.557 67.2933 245.704 67.9733 245.997 68.52C246.304 69.0667 246.704 69.4733 247.197 69.74C247.69 70.0067 248.23 70.14 248.817 70.14C249.404 70.14 249.944 70.0067 250.437 69.74C250.93 69.4733 251.324 69.0667 251.617 68.52C251.924 67.9733 252.077 67.2933 252.077 66.48C252.077 65.68 251.924 65.0067 251.617 64.46C251.324 63.9 250.93 63.4867 250.437 63.22C249.944 62.9533 249.404 62.82 248.817 62.82ZM259.829 60.84C260.829 60.84 261.682 61.0867 262.389 61.58C263.096 62.0733 263.596 62.7267 263.889 63.54V60.98H266.169V72.12C266.169 73.1467 265.956 74.0533 265.529 74.84C265.116 75.64 264.516 76.2667 263.729 76.72C262.942 77.1733 262.009 77.4 260.929 77.4C259.382 77.4 258.129 77.0333 257.169 76.3C256.222 75.5667 255.629 74.5733 255.389 73.32H257.649C257.836 73.9733 258.196 74.48 258.729 74.84C259.262 75.2133 259.942 75.4 260.769 75.4C261.676 75.4 262.422 75.12 263.009 74.56C263.596 74 263.889 73.1867 263.889 72.12V69.44C263.596 70.2533 263.096 70.9067 262.389 71.4C261.682 71.8933 260.829 72.14 259.829 72.14C258.869 72.14 258.009 71.9133 257.249 71.46C256.502 71.0067 255.916 70.3533 255.489 69.5C255.062 68.6467 254.849 67.64 254.849 66.48C254.849 65.3333 255.062 64.3333 255.489 63.48C255.916 62.6267 256.502 61.9733 257.249 61.52C258.009 61.0667 258.869 60.84 259.829 60.84ZM260.529 62.84C259.516 62.84 258.702 63.1667 258.089 63.82C257.489 64.46 257.189 65.3467 257.189 66.48C257.189 67.6133 257.489 68.5067 258.089 69.16C258.702 69.8 259.516 70.12 260.529 70.12C261.169 70.12 261.742 69.9733 262.249 69.68C262.756 69.3733 263.156 68.9467 263.449 68.4C263.742 67.8533 263.889 67.2133 263.889 66.48C263.889 65.76 263.742 65.1267 263.449 64.58C263.156 64.02 262.756 63.5933 262.249 63.3C261.742 62.9933 261.169 62.84 260.529 62.84ZM267.385 57.78C267.385 57.3933 267.518 57.0733 267.785 56.82C268.052 56.5667 268.405 56.44 268.845 56.44C269.285 56.44 269.638 56.5667 269.905 56.82C270.185 57.0733 270.325 57.3933 270.325 57.78C270.325 58.1667 270.185 58.48 269.905 58.72C269.638 58.96 269.285 59.08 268.845 59.08C268.405 59.08 268.052 58.96 267.785 58.72C267.518 58.48 267.385 58.1667 267.385 57.78ZM269.985 60.98V72H267.705V60.98H269.985ZM276.444 60.84C277.871 60.84 279.051 61.22 279.984 61.98C280.917 62.7267 281.497 63.7467 281.724 65.04H279.304C279.171 64.3467 278.844 63.8067 278.324 63.42C277.817 63.02 277.177 62.82 276.404 62.82C275.524 62.82 274.791 63.1333 274.204 63.76C273.617 64.3733 273.324 65.28 273.324 66.48C273.324 67.68 273.617 68.5933 274.204 69.22C274.791 69.8467 275.524 70.16 276.404 70.16C277.177 70.16 277.817 69.96 278.324 69.56C278.844 69.16 279.171 68.6133 279.304 67.92H281.724C281.497 69.2133 280.917 70.24 279.984 71C279.051 71.76 277.871 72.14 276.444 72.14C275.377 72.14 274.431 71.9133 273.604 71.46C272.791 71.0067 272.151 70.3533 271.684 69.5C271.217 68.6467 270.984 67.64 270.984 66.48C270.984 65.3333 271.217 64.3333 271.684 63.48C272.151 62.6267 272.791 61.9733 273.604 61.52C274.431 61.0667 275.377 60.84 276.444 60.84ZM284.367 70.08H290.027V72H281.847V70.18L287.207 62.9H281.987V60.98H289.827V62.8L284.367 70.08ZM296.867 60.8C298.147 60.8 299.173 61.2133 299.947 62.04C300.72 62.8667 301.107 64.0467 301.107 65.58V72H298.827V65.82C298.827 64.8333 298.573 64.0733 298.067 63.54C297.56 62.9933 296.867 62.72 295.987 62.72C295.08 62.72 294.353 63.0133 293.807 63.6C293.26 64.1733 292.987 65.02 292.987 66.14V72H290.707V60.98H292.987V63.4C293.28 62.5733 293.773 61.9333 294.467 61.48C295.16 61.0267 295.96 60.8 296.867 60.8ZM312.813 65.96C312.813 66.3333 312.786 66.66 312.733 66.94H304.253C304.293 68.0733 304.606 68.9133 305.193 69.46C305.78 70.0067 306.506 70.28 307.373 70.28C308.133 70.28 308.773 70.0867 309.293 69.7C309.826 69.3133 310.153 68.8 310.273 68.16H312.713C312.566 68.9333 312.26 69.62 311.793 70.22C311.326 70.82 310.72 71.2933 309.973 71.64C309.226 71.9733 308.393 72.14 307.473 72.14C306.406 72.14 305.46 71.9133 304.633 71.46C303.82 71.0067 303.18 70.3533 302.713 69.5C302.246 68.6467 302.013 67.64 302.013 66.48C302.013 65.3333 302.246 64.3333 302.713 63.48C303.18 62.6267 303.82 61.9733 304.633 61.52C305.46 61.0667 306.406 60.84 307.473 60.84C308.553 60.84 309.493 61.0667 310.293 61.52C311.106 61.96 311.726 62.5733 312.153 63.36C312.593 64.1333 312.813 65 312.813 65.96ZM310.513 65.9C310.54 65.18 310.413 64.58 310.133 64.1C309.866 63.6067 309.493 63.2467 309.013 63.02C308.546 62.78 308.033 62.66 307.473 62.66C306.58 62.66 305.833 62.9333 305.233 63.48C304.633 64.0267 304.306 64.8333 304.253 65.9H310.513Z" fill="#A2A2C0"/>
<path opacity="0.7" d="M64.6328 124.568V123.032L70.2488 115.608H72.2008V122.968H73.7848V124.568H72.2008V127H70.3608V124.568H64.6328ZM70.4888 117.784L66.5208 122.968H70.4888V117.784ZM75.8131 124.984V127H73.7491V124.984H75.8131ZM83.8639 122.616V127H82.0399V115.704H85.8799C87.1813 115.704 88.1573 116.013 88.8079 116.632C89.4693 117.251 89.7999 118.099 89.7999 119.176C89.7999 120.243 89.4639 121.085 88.7919 121.704C88.1199 122.312 87.1493 122.616 85.8799 122.616H83.8639ZM85.6879 121.128C87.1919 121.128 87.9439 120.477 87.9439 119.176C87.9439 118.536 87.7626 118.051 87.3999 117.72C87.0479 117.379 86.4773 117.208 85.6879 117.208H83.8639V121.128H85.6879ZM94.4713 118.072C95.3246 118.072 96.0926 118.253 96.7753 118.616C97.458 118.979 97.9913 119.501 98.3753 120.184C98.7593 120.867 98.9513 121.667 98.9513 122.584C98.9513 123.512 98.7593 124.317 98.3753 125C97.9913 125.683 97.458 126.205 96.7753 126.568C96.0926 126.931 95.3246 127.112 94.4713 127.112C93.618 127.112 92.85 126.931 92.1673 126.568C91.4953 126.205 90.962 125.683 90.5673 125C90.1833 124.307 89.9913 123.501 89.9913 122.584C89.9913 121.667 90.1833 120.867 90.5673 120.184C90.962 119.501 91.4953 118.979 92.1673 118.616C92.85 118.253 93.618 118.072 94.4713 118.072ZM94.4713 119.656C94.002 119.656 93.57 119.763 93.1753 119.976C92.7806 120.189 92.4606 120.52 92.2153 120.968C91.9806 121.405 91.8633 121.944 91.8633 122.584C91.8633 123.235 91.9806 123.779 92.2153 124.216C92.4606 124.653 92.7806 124.979 93.1753 125.192C93.57 125.405 94.002 125.512 94.4713 125.512C94.9406 125.512 95.3726 125.405 95.7673 125.192C96.162 124.979 96.4766 124.653 96.7113 124.216C96.9566 123.779 97.0793 123.235 97.0793 122.584C97.0793 121.944 96.9566 121.405 96.7113 120.968C96.4766 120.52 96.162 120.189 95.7673 119.976C95.3726 119.763 94.9406 119.656 94.4713 119.656ZM103.281 118.072C104.081 118.072 104.764 118.269 105.329 118.664C105.894 119.059 106.289 119.581 106.513 120.232V115.16H108.353V127H106.513V124.952C106.289 125.603 105.894 126.125 105.329 126.52C104.764 126.915 104.081 127.112 103.281 127.112C102.513 127.112 101.825 126.931 101.217 126.568C100.62 126.205 100.15 125.683 99.8089 125C99.4676 124.317 99.2969 123.512 99.2969 122.584C99.2969 121.667 99.4676 120.867 99.8089 120.184C100.15 119.501 100.62 118.979 101.217 118.616C101.825 118.253 102.513 118.072 103.281 118.072ZM103.841 119.672C103.03 119.672 102.38 119.933 101.889 120.456C101.409 120.968 101.169 121.677 101.169 122.584C101.169 123.491 101.409 124.205 101.889 124.728C102.38 125.24 103.03 125.496 103.841 125.496C104.353 125.496 104.812 125.379 105.217 125.144C105.622 124.899 105.942 124.557 106.177 124.12C106.412 123.683 106.529 123.171 106.529 122.584C106.529 122.008 106.412 121.501 106.177 121.064C105.942 120.616 105.622 120.275 105.217 120.04C104.812 119.795 104.353 119.672 103.841 119.672ZM110.894 125.464H115.422V127H108.878V125.544L113.166 119.72H108.99V118.184H115.262V119.64L110.894 125.464ZM115.71 115.624C115.71 115.315 115.816 115.059 116.03 114.856C116.243 114.653 116.526 114.552 116.878 114.552C117.23 114.552 117.512 114.653 117.726 114.856C117.95 115.059 118.062 115.315 118.062 115.624C118.062 115.933 117.95 116.184 117.726 116.376C117.512 116.568 117.23 116.664 116.878 116.664C116.526 116.664 116.243 116.568 116.03 116.376C115.816 116.184 115.71 115.933 115.71 115.624ZM117.79 118.184V127H115.966V118.184H117.79ZM122.573 118.072C123.373 118.072 124.055 118.269 124.621 118.664C125.186 119.059 125.586 119.581 125.821 120.232V118.184H127.645V127H125.821V124.952C125.586 125.603 125.186 126.125 124.621 126.52C124.055 126.915 123.373 127.112 122.573 127.112C121.805 127.112 121.117 126.931 120.509 126.568C119.911 126.205 119.442 125.683 119.101 125C118.759 124.317 118.589 123.512 118.589 122.584C118.589 121.667 118.759 120.867 119.101 120.184C119.442 119.501 119.911 118.979 120.509 118.616C121.117 118.253 121.805 118.072 122.573 118.072ZM123.133 119.672C122.322 119.672 121.671 119.933 121.181 120.456C120.701 120.968 120.461 121.677 120.461 122.584C120.461 123.491 120.701 124.205 121.181 124.728C121.671 125.24 122.322 125.496 123.133 125.496C123.645 125.496 124.103 125.379 124.509 125.144C124.914 124.899 125.234 124.557 125.469 124.12C125.703 123.683 125.821 123.171 125.821 122.584C125.821 122.008 125.703 121.501 125.469 121.064C125.234 120.616 124.914 120.275 124.509 120.04C124.103 119.795 123.645 119.672 123.133 119.672ZM132.186 120.104L130.986 120.568V127H129.146V121.288L127.93 121.752V119.976L129.146 119.512V115.16H130.986V118.792L132.186 118.328V120.104ZM136.594 125.464H141.122V127H134.578V125.544L138.866 119.72H134.69V118.184H140.962V119.64L136.594 125.464ZM145.202 118.072C146.002 118.072 146.684 118.269 147.25 118.664C147.815 119.059 148.215 119.581 148.45 120.232V118.184H150.274V127H148.45V124.952C148.215 125.603 147.815 126.125 147.25 126.52C146.684 126.915 146.002 127.112 145.202 127.112C144.434 127.112 143.746 126.931 143.138 126.568C142.54 126.205 142.071 125.683 141.73 125C141.388 124.317 141.218 123.512 141.218 122.584C141.218 121.667 141.388 120.867 141.73 120.184C142.071 119.501 142.54 118.979 143.138 118.616C143.746 118.253 144.434 118.072 145.202 118.072ZM145.762 119.672C144.951 119.672 144.3 119.933 143.81 120.456C143.33 120.968 143.09 121.677 143.09 122.584C143.09 123.491 143.33 124.205 143.81 124.728C144.3 125.24 144.951 125.496 145.762 125.496C146.274 125.496 146.732 125.379 147.138 125.144C147.543 124.899 147.863 124.557 148.098 124.12C148.332 123.683 148.45 123.171 148.45 122.584C148.45 122.008 148.332 121.501 148.098 121.064C147.863 120.616 147.543 120.275 147.138 120.04C146.732 119.795 146.274 119.672 145.762 119.672ZM155.038 118.072C155.838 118.072 156.521 118.269 157.086 118.664C157.652 119.059 158.046 119.581 158.27 120.232V115.16H160.11V127H158.27V124.952C158.046 125.603 157.652 126.125 157.086 126.52C156.521 126.915 155.838 127.112 155.038 127.112C154.27 127.112 153.582 126.931 152.974 126.568C152.377 126.205 151.908 125.683 151.566 125C151.225 124.317 151.054 123.512 151.054 122.584C151.054 121.667 151.225 120.867 151.566 120.184C151.908 119.501 152.377 118.979 152.974 118.616C153.582 118.253 154.27 118.072 155.038 118.072ZM155.598 119.672C154.788 119.672 154.137 119.933 153.646 120.456C153.166 120.968 152.926 121.677 152.926 122.584C152.926 123.491 153.166 124.205 153.646 124.728C154.137 125.24 154.788 125.496 155.598 125.496C156.11 125.496 156.569 125.379 156.974 125.144C157.38 124.899 157.7 124.557 157.934 124.12C158.169 123.683 158.286 123.171 158.286 122.584C158.286 122.008 158.169 121.501 157.934 121.064C157.7 120.616 157.38 120.275 156.974 120.04C156.569 119.795 156.11 119.672 155.598 119.672ZM164.875 118.072C165.675 118.072 166.358 118.269 166.923 118.664C167.489 119.059 167.889 119.581 168.123 120.232V118.184H169.947V127H168.123V124.952C167.889 125.603 167.489 126.125 166.923 126.52C166.358 126.915 165.675 127.112 164.875 127.112C164.107 127.112 163.419 126.931 162.811 126.568C162.214 126.205 161.745 125.683 161.403 125C161.062 124.317 160.891 123.512 160.891 122.584C160.891 121.667 161.062 120.867 161.403 120.184C161.745 119.501 162.214 118.979 162.811 118.616C163.419 118.253 164.107 118.072 164.875 118.072ZM165.435 119.672C164.625 119.672 163.974 119.933 163.483 120.456C163.003 120.968 162.763 121.677 162.763 122.584C162.763 123.491 163.003 124.205 163.483 124.728C163.974 125.24 164.625 125.496 165.435 125.496C165.947 125.496 166.406 125.379 166.811 125.144C167.217 124.899 167.537 124.557 167.771 124.12C168.006 123.683 168.123 123.171 168.123 122.584C168.123 122.008 168.006 121.501 167.771 121.064C167.537 120.616 167.217 120.275 166.811 120.04C166.406 119.795 165.947 119.672 165.435 119.672ZM176.104 118.04C177.128 118.04 177.95 118.371 178.568 119.032C179.187 119.693 179.496 120.637 179.496 121.864V127H177.672V122.056C177.672 121.267 177.47 120.659 177.064 120.232C176.659 119.795 176.104 119.576 175.4 119.576C174.675 119.576 174.094 119.811 173.656 120.28C173.219 120.739 173 121.416 173 122.312V127H171.176V118.184H173V120.12C173.235 119.459 173.63 118.947 174.184 118.584C174.739 118.221 175.379 118.04 176.104 118.04ZM177.864 115.688L174.328 117.496V116.216L177.864 114.264V115.688ZM195.811 118.184L193.363 127H191.347L189.171 120.184L186.963 127H184.963L182.515 118.184H184.355L186.035 125.32L188.243 118.184H190.163L192.403 125.32L194.083 118.184H195.811ZM203.939 118.072C204.707 118.072 205.39 118.253 205.987 118.616C206.595 118.979 207.07 119.501 207.411 120.184C207.752 120.867 207.923 121.667 207.923 122.584C207.923 123.512 207.752 124.317 207.411 125C207.07 125.683 206.595 126.205 205.987 126.568C205.39 126.931 204.707 127.112 203.939 127.112C203.139 127.112 202.456 126.915 201.891 126.52C201.326 126.125 200.931 125.603 200.707 124.952V131.192H198.883V118.184H200.707V120.232C200.931 119.581 201.326 119.059 201.891 118.664C202.456 118.269 203.139 118.072 203.939 118.072ZM203.379 119.672C202.867 119.672 202.408 119.795 202.003 120.04C201.598 120.275 201.278 120.616 201.043 121.064C200.808 121.501 200.691 122.008 200.691 122.584C200.691 123.171 200.808 123.683 201.043 124.12C201.278 124.557 201.598 124.899 202.003 125.144C202.408 125.379 202.867 125.496 203.379 125.496C204.19 125.496 204.84 125.24 205.331 124.728C205.822 124.205 206.067 123.491 206.067 122.584C206.067 121.688 205.822 120.979 205.331 120.456C204.84 119.933 204.19 119.672 203.379 119.672ZM210.544 119.912C210.843 119.336 211.269 118.883 211.824 118.552C212.379 118.211 213.019 118.04 213.744 118.04V120.024H213.2C212.4 120.024 211.755 120.221 211.264 120.616C210.784 121 210.544 121.64 210.544 122.536V127H208.72V118.184H210.544V119.912ZM218.183 118.072C219.036 118.072 219.804 118.253 220.487 118.616C221.169 118.979 221.703 119.501 222.087 120.184C222.471 120.867 222.663 121.667 222.663 122.584C222.663 123.512 222.471 124.317 222.087 125C221.703 125.683 221.169 126.205 220.487 126.568C219.804 126.931 219.036 127.112 218.183 127.112C217.329 127.112 216.561 126.931 215.879 126.568C215.207 126.205 214.673 125.683 214.279 125C213.895 124.307 213.703 123.501 213.703 122.584C213.703 121.667 213.895 120.867 214.279 120.184C214.673 119.501 215.207 118.979 215.879 118.616C216.561 118.253 217.329 118.072 218.183 118.072ZM218.183 119.656C217.713 119.656 217.281 119.763 216.887 119.976C216.492 120.189 216.172 120.52 215.927 120.968C215.692 121.405 215.575 121.944 215.575 122.584C215.575 123.235 215.692 123.779 215.927 124.216C216.172 124.653 216.492 124.979 216.887 125.192C217.281 125.405 217.713 125.512 218.183 125.512C218.652 125.512 219.084 125.405 219.479 125.192C219.873 124.979 220.188 124.653 220.423 124.216C220.668 123.779 220.791 123.235 220.791 122.584C220.791 121.944 220.668 121.405 220.423 120.968C220.188 120.52 219.873 120.189 219.479 119.976C219.084 119.763 218.652 119.656 218.183 119.656ZM224.448 116.664C224.096 116.664 223.808 116.568 223.584 116.376C223.371 116.184 223.264 115.933 223.264 115.624C223.264 115.315 223.371 115.059 223.584 114.856C223.808 114.653 224.096 114.552 224.448 114.552C224.8 114.552 225.083 114.653 225.296 114.856C225.51 115.059 225.616 115.315 225.616 115.624C225.616 115.933 225.51 116.184 225.296 116.376C225.083 116.568 224.8 116.664 224.448 116.664ZM221.888 129.592H222.512C222.864 129.592 223.12 129.512 223.28 129.352C223.451 129.203 223.536 128.941 223.536 128.568V118.184H225.376V128.584C225.376 130.323 224.502 131.192 222.752 131.192H221.888V129.592ZM234.782 122.168C234.782 122.467 234.761 122.728 234.718 122.952H227.934C227.966 123.859 228.217 124.531 228.686 124.968C229.155 125.405 229.737 125.624 230.43 125.624C231.038 125.624 231.55 125.469 231.966 125.16C232.393 124.851 232.654 124.44 232.75 123.928H234.702C234.585 124.547 234.339 125.096 233.966 125.576C233.593 126.056 233.107 126.435 232.51 126.712C231.913 126.979 231.246 127.112 230.51 127.112C229.657 127.112 228.899 126.931 228.238 126.568C227.587 126.205 227.075 125.683 226.702 125C226.329 124.317 226.142 123.512 226.142 122.584C226.142 121.667 226.329 120.867 226.702 120.184C227.075 119.501 227.587 118.979 228.238 118.616C228.899 118.253 229.657 118.072 230.51 118.072C231.374 118.072 232.126 118.253 232.766 118.616C233.417 118.968 233.913 119.459 234.254 120.088C234.606 120.707 234.782 121.4 234.782 122.168ZM232.942 122.12C232.963 121.544 232.862 121.064 232.638 120.68C232.425 120.285 232.126 119.997 231.742 119.816C231.369 119.624 230.958 119.528 230.51 119.528C229.795 119.528 229.198 119.747 228.718 120.184C228.238 120.621 227.977 121.267 227.934 122.12H232.942ZM240.575 127L237.407 123.08V127H235.583V115.16H237.407V121.944L240.543 118.184H242.735L238.895 122.568L242.831 127H240.575ZM246.981 118.072C248.122 118.072 249.066 118.376 249.813 118.984C250.559 119.581 251.023 120.397 251.205 121.432H249.269C249.162 120.877 248.901 120.445 248.485 120.136C248.079 119.816 247.567 119.656 246.949 119.656C246.245 119.656 245.658 119.907 245.189 120.408C244.719 120.899 244.485 121.624 244.485 122.584C244.485 123.544 244.719 124.275 245.189 124.776C245.658 125.277 246.245 125.528 246.949 125.528C247.567 125.528 248.079 125.368 248.485 125.048C248.901 124.728 249.162 124.291 249.269 123.736H251.205C251.023 124.771 250.559 125.592 249.813 126.2C249.066 126.808 248.122 127.112 246.981 127.112C246.127 127.112 245.37 126.931 244.709 126.568C244.058 126.205 243.546 125.683 243.173 125C242.799 124.317 242.613 123.512 242.613 122.584C242.613 121.667 242.799 120.867 243.173 120.184C243.546 119.501 244.058 118.979 244.709 118.616C245.37 118.253 246.127 118.072 246.981 118.072ZM251.751 115.624C251.751 115.315 251.857 115.059 252.071 114.856C252.284 114.653 252.567 114.552 252.919 114.552C253.271 114.552 253.553 114.653 253.767 114.856C253.991 115.059 254.103 115.315 254.103 115.624C254.103 115.933 253.991 116.184 253.767 116.376C253.553 116.568 253.271 116.664 252.919 116.664C252.567 116.664 252.284 116.568 252.071 116.376C251.857 116.184 251.751 115.933 251.751 115.624ZM253.831 118.184V127H252.007V118.184H253.831ZM263.27 122.168C263.27 122.467 263.249 122.728 263.206 122.952H256.422C256.454 123.859 256.705 124.531 257.174 124.968C257.643 125.405 258.225 125.624 258.918 125.624C259.526 125.624 260.038 125.469 260.454 125.16C260.881 124.851 261.142 124.44 261.238 123.928H263.19C263.073 124.547 262.827 125.096 262.454 125.576C262.081 126.056 261.595 126.435 260.998 126.712C260.401 126.979 259.734 127.112 258.998 127.112C258.145 127.112 257.387 126.931 256.726 126.568C256.075 126.205 255.563 125.683 255.19 125C254.817 124.317 254.63 123.512 254.63 122.584C254.63 121.667 254.817 120.867 255.19 120.184C255.563 119.501 256.075 118.979 256.726 118.616C257.387 118.253 258.145 118.072 258.998 118.072C259.862 118.072 260.614 118.253 261.254 118.616C261.905 118.968 262.401 119.459 262.742 120.088C263.094 120.707 263.27 121.4 263.27 122.168ZM261.43 122.12C261.451 121.544 261.35 121.064 261.126 120.68C260.913 120.285 260.614 119.997 260.23 119.816C259.857 119.624 259.446 119.528 258.998 119.528C258.283 119.528 257.686 119.747 257.206 120.184C256.726 120.621 256.465 121.267 256.422 122.12H261.43Z" fill="#A2A2C0"/>
<path opacity="0.6" d="M64.757 16.88C66.5703 15.664 68.021 14.4587 69.109 13.264C70.197 12.0587 70.741 10.9387 70.741 9.904C70.741 9.264 70.5757 8.752 70.245 8.368C69.925 7.97333 69.4023 7.776 68.677 7.776C67.9303 7.776 67.365 8.016 66.981 8.496C66.597 8.96533 66.3837 9.616 66.341 10.448H64.901C64.9757 9.18933 65.365 8.224 66.069 7.552C66.773 6.86933 67.6797 6.528 68.789 6.528C69.845 6.528 70.6823 6.81067 71.301 7.376C71.9197 7.94133 72.229 8.74133 72.229 9.776C72.229 10.6293 71.9517 11.4987 71.397 12.384C70.853 13.2587 70.165 14.0747 69.333 14.832C68.5117 15.5787 67.6637 16.2133 66.789 16.736H72.517V17.936H64.757V16.88ZM74.4431 16.288V18H72.6831V16.288H74.4431ZM95.0037 6.72L92.1397 18H90.3637L87.7557 8.784L85.1477 18H83.3717L80.4917 6.72H82.1077L84.2677 16.304L86.9397 6.72H88.5557L91.2277 16.272L93.4037 6.72H95.0037ZM100.598 9.104C101.377 9.104 102.07 9.28533 102.678 9.648C103.286 10.0107 103.761 10.5333 104.102 11.216C104.454 11.8987 104.63 12.6987 104.63 13.616C104.63 14.5333 104.454 15.3333 104.102 16.016C103.761 16.688 103.286 17.2053 102.678 17.568C102.07 17.9307 101.377 18.112 100.598 18.112C99.7445 18.112 99.0192 17.8987 98.4219 17.472C97.8352 17.0347 97.4299 16.464 97.2059 15.76V22.16H95.7499V9.216H97.2059V11.456C97.4299 10.752 97.8352 10.1867 98.4219 9.76C99.0192 9.32267 99.7445 9.104 100.598 9.104ZM100.182 10.4C99.6165 10.4 99.1045 10.5333 98.6459 10.8C98.1872 11.056 97.8299 11.4293 97.5739 11.92C97.3179 12.4107 97.1899 12.976 97.1899 13.616C97.1899 14.256 97.3179 14.8213 97.5739 15.312C97.8299 15.792 98.1872 16.1653 98.6459 16.432C99.1045 16.6987 99.6165 16.832 100.182 16.832C101.089 16.832 101.809 16.5493 102.342 15.984C102.886 15.408 103.158 14.6187 103.158 13.616C103.158 12.6133 102.886 11.8293 102.342 11.264C101.809 10.688 101.089 10.4 100.182 10.4ZM107.027 10.992C107.315 10.384 107.736 9.91467 108.291 9.584C108.846 9.24267 109.507 9.072 110.275 9.072V10.656H109.827C109.006 10.656 108.334 10.8693 107.811 11.296C107.288 11.712 107.027 12.4053 107.027 13.376V18H105.571V9.216H107.027V10.992ZM114.736 9.104C115.578 9.104 116.33 9.28533 116.992 9.648C117.664 10.0107 118.186 10.5333 118.56 11.216C118.944 11.8987 119.136 12.6987 119.136 13.616C119.136 14.5333 118.944 15.3333 118.56 16.016C118.186 16.688 117.664 17.2053 116.992 17.568C116.33 17.9307 115.578 18.112 114.736 18.112C113.893 18.112 113.136 17.9307 112.464 17.568C111.802 17.2053 111.28 16.688 110.896 16.016C110.512 15.3333 110.32 14.5333 110.32 13.616C110.32 12.6987 110.512 11.8987 110.896 11.216C111.28 10.5333 111.802 10.0107 112.464 9.648C113.136 9.28533 113.893 9.104 114.736 9.104ZM114.736 10.384C114.213 10.384 113.728 10.5013 113.28 10.736C112.842 10.9707 112.485 11.3333 112.208 11.824C111.941 12.304 111.808 12.9013 111.808 13.616C111.808 14.32 111.941 14.9173 112.208 15.408C112.485 15.888 112.842 16.2453 113.28 16.48C113.728 16.7147 114.213 16.832 114.736 16.832C115.258 16.832 115.738 16.7147 116.176 16.48C116.624 16.2453 116.981 15.888 117.248 15.408C117.525 14.9173 117.664 14.32 117.664 13.616C117.664 12.9013 117.525 12.304 117.248 11.824C116.981 11.3333 116.624 10.9707 116.176 10.736C115.738 10.5013 115.258 10.384 114.736 10.384ZM132.137 9.216L129.609 18H128.041L125.625 10.848L123.193 18H121.609L119.113 9.216H120.585L122.457 16.608L124.889 9.216H126.409L128.857 16.592L130.745 9.216H132.137ZM136.135 9.104C136.988 9.104 137.708 9.31733 138.295 9.744C138.892 10.1707 139.308 10.7413 139.543 11.456V9.216H140.999V18H139.543V15.76C139.308 16.4747 138.892 17.0453 138.295 17.472C137.708 17.8987 136.988 18.112 136.135 18.112C135.356 18.112 134.663 17.9307 134.055 17.568C133.447 17.2053 132.967 16.688 132.615 16.016C132.274 15.3333 132.103 14.5333 132.103 13.616C132.103 12.6987 132.274 11.8987 132.615 11.216C132.967 10.5333 133.447 10.0107 134.055 9.648C134.663 9.28533 135.356 9.104 136.135 9.104ZM136.551 10.4C135.655 10.4 134.935 10.688 134.391 11.264C133.858 11.8293 133.591 12.6133 133.591 13.616C133.591 14.6187 133.858 15.408 134.391 15.984C134.935 16.5493 135.655 16.832 136.551 16.832C137.127 16.832 137.639 16.6987 138.087 16.432C138.546 16.1653 138.903 15.792 139.159 15.312C139.415 14.8213 139.543 14.256 139.543 13.616C139.543 12.976 139.415 12.4107 139.159 11.92C138.903 11.4293 138.546 11.056 138.087 10.8C137.639 10.5333 137.127 10.4 136.551 10.4ZM145.956 9.104C146.809 9.104 147.529 9.31733 148.116 9.744C148.713 10.1707 149.129 10.7413 149.364 11.456V6.16H150.82V18H149.364V15.76C149.129 16.4747 148.713 17.0453 148.116 17.472C147.529 17.8987 146.809 18.112 145.956 18.112C145.177 18.112 144.484 17.9307 143.876 17.568C143.268 17.2053 142.788 16.688 142.436 16.016C142.095 15.3333 141.924 14.5333 141.924 13.616C141.924 12.6987 142.095 11.8987 142.436 11.216C142.788 10.5333 143.268 10.0107 143.876 9.648C144.484 9.28533 145.177 9.104 145.956 9.104ZM146.372 10.4C145.476 10.4 144.756 10.688 144.212 11.264C143.679 11.8293 143.412 12.6133 143.412 13.616C143.412 14.6187 143.679 15.408 144.212 15.984C144.756 16.5493 145.476 16.832 146.372 16.832C146.948 16.832 147.46 16.6987 147.908 16.432C148.367 16.1653 148.724 15.792 148.98 15.312C149.236 14.8213 149.364 14.256 149.364 13.616C149.364 12.976 149.236 12.4107 148.98 11.92C148.724 11.4293 148.367 11.056 147.908 10.8C147.46 10.5333 146.948 10.4 146.372 10.4ZM153.025 16.768H157.729V18H151.425V16.832L155.905 10.448H151.553V9.216H157.569V10.4L153.025 16.768ZM166.438 13.12C166.438 13.4293 166.417 13.696 166.374 13.92H159.35C159.382 14.9227 159.665 15.6747 160.198 16.176C160.742 16.6773 161.403 16.928 162.182 16.928C162.886 16.928 163.473 16.752 163.942 16.4C164.422 16.0373 164.715 15.5573 164.822 14.96H166.374C166.267 15.568 166.027 16.112 165.654 16.592C165.291 17.072 164.817 17.4453 164.23 17.712C163.643 17.9787 162.982 18.112 162.246 18.112C161.403 18.112 160.657 17.9307 160.006 17.568C159.355 17.2053 158.843 16.688 158.47 16.016C158.107 15.3333 157.926 14.5333 157.926 13.616C157.926 12.6987 158.107 11.8987 158.47 11.216C158.843 10.5333 159.355 10.0107 160.006 9.648C160.657 9.28533 161.403 9.104 162.246 9.104C163.099 9.104 163.841 9.28533 164.47 9.648C165.11 10.0107 165.595 10.496 165.926 11.104C166.267 11.712 166.438 12.384 166.438 13.12ZM164.966 13.216C164.998 12.5653 164.891 12.0213 164.646 11.584C164.401 11.1467 164.065 10.8213 163.638 10.608C163.211 10.3947 162.747 10.288 162.246 10.288C161.446 10.288 160.774 10.5387 160.23 11.04C159.686 11.5307 159.393 12.256 159.35 13.216H164.966ZM172.006 9.072C173.03 9.072 173.857 9.40267 174.486 10.064C175.116 10.7147 175.43 11.6587 175.43 12.896V18H173.974V13.024C173.974 12.1493 173.75 11.4773 173.302 11.008C172.854 10.5387 172.246 10.304 171.478 10.304C170.678 10.304 170.038 10.5653 169.558 11.088C169.078 11.6 168.838 12.352 168.838 13.344V18H167.382V9.216H168.838V11.296C169.062 10.5813 169.457 10.032 170.022 9.648C170.598 9.264 171.26 9.072 172.006 9.072ZM176.448 6.64C176.448 6.37333 176.538 6.16 176.72 6C176.901 5.82933 177.141 5.744 177.44 5.744C177.738 5.744 177.978 5.82933 178.16 6C178.341 6.16 178.432 6.37333 178.432 6.64C178.432 6.90667 178.341 7.12533 178.16 7.296C177.978 7.456 177.738 7.536 177.44 7.536C177.141 7.536 176.901 7.456 176.72 7.296C176.538 7.12533 176.448 6.90667 176.448 6.64ZM178.16 9.216V18H176.704V9.216H178.16ZM187.62 13.12C187.62 13.4293 187.599 13.696 187.556 13.92H180.532C180.564 14.9227 180.847 15.6747 181.38 16.176C181.924 16.6773 182.586 16.928 183.364 16.928C184.068 16.928 184.655 16.752 185.124 16.4C185.604 16.0373 185.898 15.5573 186.004 14.96H187.556C187.45 15.568 187.21 16.112 186.836 16.592C186.474 17.072 185.999 17.4453 185.412 17.712C184.826 17.9787 184.164 18.112 183.428 18.112C182.586 18.112 181.839 17.9307 181.188 17.568C180.538 17.2053 180.026 16.688 179.652 16.016C179.29 15.3333 179.108 14.5333 179.108 13.616C179.108 12.6987 179.29 11.8987 179.652 11.216C180.026 10.5333 180.538 10.0107 181.188 9.648C181.839 9.28533 182.586 9.104 183.428 9.104C184.282 9.104 185.023 9.28533 185.652 9.648C186.292 10.0107 186.778 10.496 187.108 11.104C187.45 11.712 187.62 12.384 187.62 13.12ZM186.148 13.216C186.18 12.5653 186.074 12.0213 185.828 11.584C185.583 11.1467 185.247 10.8213 184.82 10.608C184.394 10.3947 183.93 10.288 183.428 10.288C182.628 10.288 181.956 10.5387 181.412 11.04C180.868 11.5307 180.575 12.256 180.532 13.216H186.148ZM195.158 9.104C196.011 9.104 196.731 9.31733 197.318 9.744C197.915 10.1707 198.331 10.7413 198.566 11.456V6.16H200.022V18H198.566V15.76C198.331 16.4747 197.915 17.0453 197.318 17.472C196.731 17.8987 196.011 18.112 195.158 18.112C194.379 18.112 193.686 17.9307 193.078 17.568C192.47 17.2053 191.99 16.688 191.638 16.016C191.297 15.3333 191.126 14.5333 191.126 13.616C191.126 12.6987 191.297 11.8987 191.638 11.216C191.99 10.5333 192.47 10.0107 193.078 9.648C193.686 9.28533 194.379 9.104 195.158 9.104ZM195.574 10.4C194.678 10.4 193.958 10.688 193.414 11.264C192.881 11.8293 192.614 12.6133 192.614 13.616C192.614 14.6187 192.881 15.408 193.414 15.984C193.958 16.5493 194.678 16.832 195.574 16.832C196.15 16.832 196.662 16.6987 197.11 16.432C197.569 16.1653 197.926 15.792 198.182 15.312C198.438 14.8213 198.566 14.256 198.566 13.616C198.566 12.976 198.438 12.4107 198.182 11.92C197.926 11.4293 197.569 11.056 197.11 10.8C196.662 10.5333 196.15 10.4 195.574 10.4ZM205.363 9.104C206.206 9.104 206.958 9.28533 207.619 9.648C208.291 10.0107 208.814 10.5333 209.187 11.216C209.571 11.8987 209.763 12.6987 209.763 13.616C209.763 14.5333 209.571 15.3333 209.187 16.016C208.814 16.688 208.291 17.2053 207.619 17.568C206.958 17.9307 206.206 18.112 205.363 18.112C204.521 18.112 203.763 17.9307 203.091 17.568C202.43 17.2053 201.907 16.688 201.523 16.016C201.139 15.3333 200.947 14.5333 200.947 13.616C200.947 12.6987 201.139 11.8987 201.523 11.216C201.907 10.5333 202.43 10.0107 203.091 9.648C203.763 9.28533 204.521 9.104 205.363 9.104ZM205.363 10.384C204.841 10.384 204.355 10.5013 203.907 10.736C203.47 10.9707 203.113 11.3333 202.835 11.824C202.569 12.304 202.435 12.9013 202.435 13.616C202.435 14.32 202.569 14.9173 202.835 15.408C203.113 15.888 203.47 16.2453 203.907 16.48C204.355 16.7147 204.841 16.832 205.363 16.832C205.886 16.832 206.366 16.7147 206.803 16.48C207.251 16.2453 207.609 15.888 207.875 15.408C208.153 14.9173 208.291 14.32 208.291 13.616C208.291 12.9013 208.153 12.304 207.875 11.824C207.609 11.3333 207.251 10.9707 206.803 10.736C206.366 10.5013 205.886 10.384 205.363 10.384ZM218.542 9.104C219.32 9.104 220.014 9.28533 220.622 9.648C221.23 10.0107 221.704 10.5333 222.046 11.216C222.398 11.8987 222.574 12.6987 222.574 13.616C222.574 14.5333 222.398 15.3333 222.046 16.016C221.704 16.688 221.23 17.2053 220.622 17.568C220.014 17.9307 219.32 18.112 218.542 18.112C217.688 18.112 216.963 17.8987 216.366 17.472C215.779 17.0347 215.374 16.464 215.15 15.76V22.16H213.694V9.216H215.15V11.456C215.374 10.752 215.779 10.1867 216.366 9.76C216.963 9.32267 217.688 9.104 218.542 9.104ZM218.126 10.4C217.56 10.4 217.048 10.5333 216.59 10.8C216.131 11.056 215.774 11.4293 215.518 11.92C215.262 12.4107 215.134 12.976 215.134 13.616C215.134 14.256 215.262 14.8213 215.518 15.312C215.774 15.792 216.131 16.1653 216.59 16.432C217.048 16.6987 217.56 16.832 218.126 16.832C219.032 16.832 219.752 16.5493 220.286 15.984C220.83 15.408 221.102 14.6187 221.102 13.616C221.102 12.6133 220.83 11.8293 220.286 11.264C219.752 10.688 219.032 10.4 218.126 10.4ZM224.971 10.992C225.259 10.384 225.68 9.91467 226.235 9.584C226.79 9.24267 227.451 9.072 228.219 9.072V10.656H227.771C226.95 10.656 226.278 10.8693 225.755 11.296C225.232 11.712 224.971 12.4053 224.971 13.376V18H223.515V9.216H224.971V10.992ZM232.679 9.104C233.522 9.104 234.274 9.28533 234.935 9.648C235.607 10.0107 236.13 10.5333 236.503 11.216C236.887 11.8987 237.079 12.6987 237.079 13.616C237.079 14.5333 236.887 15.3333 236.503 16.016C236.13 16.688 235.607 17.2053 234.935 17.568C234.274 17.9307 233.522 18.112 232.679 18.112C231.837 18.112 231.079 17.9307 230.407 17.568C229.746 17.2053 229.223 16.688 228.839 16.016C228.455 15.3333 228.263 14.5333 228.263 13.616C228.263 12.6987 228.455 11.8987 228.839 11.216C229.223 10.5333 229.746 10.0107 230.407 9.648C231.079 9.28533 231.837 9.104 232.679 9.104ZM232.679 10.384C232.157 10.384 231.671 10.5013 231.223 10.736C230.786 10.9707 230.429 11.3333 230.151 11.824C229.885 12.304 229.751 12.9013 229.751 13.616C229.751 14.32 229.885 14.9173 230.151 15.408C230.429 15.888 230.786 16.2453 231.223 16.48C231.671 16.7147 232.157 16.832 232.679 16.832C233.202 16.832 233.682 16.7147 234.119 16.48C234.567 16.2453 234.925 15.888 235.191 15.408C235.469 14.9173 235.607 14.32 235.607 13.616C235.607 12.9013 235.469 12.304 235.191 11.824C234.925 11.3333 234.567 10.9707 234.119 10.736C233.682 10.5013 233.202 10.384 232.679 10.384ZM238.849 7.536C238.55 7.536 238.305 7.456 238.113 7.296C237.931 7.12533 237.841 6.90667 237.841 6.64C237.841 6.37333 237.931 6.16 238.113 6C238.305 5.82933 238.55 5.744 238.849 5.744C239.137 5.744 239.371 5.82933 239.553 6C239.734 6.16 239.825 6.37333 239.825 6.64C239.825 6.90667 239.734 7.12533 239.553 7.296C239.371 7.456 239.137 7.536 238.849 7.536ZM236.401 20.88H237.009C237.393 20.88 237.67 20.7947 237.841 20.624C238.022 20.4533 238.113 20.16 238.113 19.744V9.216H239.585V19.792C239.585 21.3707 238.785 22.16 237.185 22.16H236.401V20.88ZM249.027 13.12C249.027 13.4293 249.006 13.696 248.963 13.92H241.939C241.971 14.9227 242.254 15.6747 242.787 16.176C243.331 16.6773 243.993 16.928 244.771 16.928C245.475 16.928 246.062 16.752 246.531 16.4C247.011 16.0373 247.305 15.5573 247.411 14.96H248.963C248.857 15.568 248.617 16.112 248.243 16.592C247.881 17.072 247.406 17.4453 246.819 17.712C246.233 17.9787 245.571 18.112 244.835 18.112C243.993 18.112 243.246 17.9307 242.595 17.568C241.945 17.2053 241.433 16.688 241.059 16.016C240.697 15.3333 240.515 14.5333 240.515 13.616C240.515 12.6987 240.697 11.8987 241.059 11.216C241.433 10.5333 241.945 10.0107 242.595 9.648C243.246 9.28533 243.993 9.104 244.835 9.104C245.689 9.104 246.43 9.28533 247.059 9.648C247.699 10.0107 248.185 10.496 248.515 11.104C248.857 11.712 249.027 12.384 249.027 13.12ZM247.555 13.216C247.587 12.5653 247.481 12.0213 247.235 11.584C246.99 11.1467 246.654 10.8213 246.227 10.608C245.801 10.3947 245.337 10.288 244.835 10.288C244.035 10.288 243.363 10.5387 242.819 11.04C242.275 11.5307 241.982 12.256 241.939 13.216H247.555ZM254.788 18L251.428 14.048V18H249.972V6.16H251.428V13.04L254.74 9.216H256.516L252.58 13.584L256.612 18H254.788ZM261.126 16.72V18H260.038C259.142 18 258.47 17.7867 258.022 17.36C257.584 16.9333 257.366 16.2187 257.366 15.216V10.48H256.054V9.216H257.366V7.024H258.838V9.216H261.11V10.48H258.838V15.248C258.838 15.8133 258.939 16.2027 259.142 16.416C259.355 16.6187 259.718 16.72 260.23 16.72H261.126ZM269.75 9.216V18H268.294V15.936C268.07 16.6507 267.67 17.2 267.094 17.584C266.529 17.9573 265.868 18.144 265.11 18.144C264.097 18.144 263.276 17.8187 262.646 17.168C262.017 16.5067 261.702 15.5627 261.702 14.336V9.216H263.158V14.192C263.158 15.0667 263.382 15.744 263.83 16.224C264.278 16.6933 264.886 16.928 265.654 16.928C266.454 16.928 267.094 16.672 267.574 16.16C268.054 15.6373 268.294 14.88 268.294 13.888V9.216H269.75Z" fill="#A2A2C0"/>
<defs>
<filter id="filter0_d" x="0" y="17" width="472" height="126" filterUnits="userSpaceOnUse" color-interpolation-filters="sRGB">
<feFlood flood-opacity="0" result="BackgroundImageFix"/>
<feColorMatrix in="SourceAlpha" type="matrix" values="0 0 0 0 0 0 0 0 0 0 0 0 0 0 0 0 0 0 127 0"/>
<feOffset dy="15"/>
<feGaussianBlur stdDeviation="17.5"/>
<feColorMatrix type="matrix" values="0 0 0 0 0.195833 0 0 0 0 0.228 0 0 0 0 1 0 0 0 0.1 0"/>
<feBlend mode="normal" in2="BackgroundImageFix" result="effect1_dropShadow"/>
<feBlend mode="normal" in="SourceGraphic" in2="effect1_dropShadow" result="shape"/>
</filter>
<linearGradient id="paint0_linear" x1="189" y1="50" x2="189" y2="80" gradientUnits="userSpaceOnUse">
<stop stop-color="#8E2DE2"/>
<stop offset="1" stop-color="#323AFF"/>
</linearGradient>
</defs>
</svg>
